<?xml version="1.0" encoding="UTF-8"?>
<svg version="1.1" xmlns="http://www.w3.org/2000/svg" width="1920" height="572">
<path d="M0 0 C1.02351563 -0.03907471 2.04703125 -0.07814941 3.1015625 -0.1184082 C7.80941398 -0.13507797 11.55459286 0.05403451 15.46484375 2.84765625 C22.3235358 10.16383723 22.54605296 23.93551804 24.29956055 33.44335938 C24.57355212 34.91352029 24.84787021 36.38362039 25.12248325 37.85366535 C25.86979301 41.85925958 26.61252917 45.86568981 27.35447598 49.87228036 C28.15660512 54.19926741 28.96305839 58.52544872 29.76898193 62.85173035 C31.16210106 70.33335607 32.55254051 77.81547571 33.94113159 85.29794312 C35.95520064 96.15075976 37.97337679 107.00280948 39.99258816 117.85467041 C43.06069176 134.34401096 46.12630989 150.83381223 49.18995655 167.3239814 C53.73593058 191.79282116 58.28828895 216.26046884 62.84324622 240.72763777 C64.46506486 249.43949099 66.08664894 258.15138789 67.70825195 266.86328125 C67.88312311 267.80275376 68.05799426 268.74222627 68.23816454 269.71016765 C70.61458198 282.47725243 72.99068783 295.24439516 75.36606419 308.01167369 C75.8491411 310.60804927 76.33228401 313.20441257 76.81542873 315.80077553 C78.349889 324.04763813 79.88278019 332.2947874 81.41227722 340.54257202 C81.98941077 343.65389222 82.56668104 346.76518702 83.14404297 349.87646484 C83.35351175 351.00544036 83.35351175 351.00544036 83.56721222 352.15722346 C85.41813842 362.12912272 87.29253191 372.09628968 89.18802583 382.05980861 C90.02412993 386.46124002 90.85344335 390.86395786 91.68373299 395.26648903 C92.11849606 397.56041892 92.55679189 399.85368274 92.99902153 402.14618492 C93.59557076 405.23882789 94.18005006 408.33353018 94.76196289 411.42895508 C94.93439325 412.30433992 95.10682362 413.17972477 95.28447914 414.08163643 C96.68087565 421.62401736 98.14440946 429.95280526 94.5 437 C88.5507832 445.05280728 77.73631766 445.81224655 68.49243164 447.26464844 C37.71634043 451.72548143 37.71634043 451.72548143 27.20703125 444.984375 C19.12472525 438.48998343 15.99789619 432.53601161 14.13354492 422.59423828 C13.82663743 421.04212993 13.82663743 421.04212993 13.51352978 419.45866585 C12.80361778 415.82981911 12.11859322 412.19686345 11.4375 408.5625 C11.177027 407.18296156 10.91639343 405.80345343 10.65561295 404.42397308 C8.66623527 393.87996436 6.72859575 383.32661193 4.79811502 372.77168798 C3.94814141 368.12816917 3.09474673 363.485279 2.241745 358.84231567 C0.62243277 350.02553416 -0.99405668 341.20823776 -2.60941964 332.39073193 C-4.4107748 322.55852859 -6.21477344 312.7268111 -8.01924491 302.89517927 C-8.55144574 299.99530283 -9.08352435 297.09540398 -9.61557198 294.19549942 C-11.35027964 284.74112696 -13.08645778 275.28702797 -14.82540894 265.83343506 C-15.49360647 262.19985432 -16.16164014 258.56624349 -16.82958984 254.93261719 C-16.99125381 254.05335556 -17.15291778 253.17409392 -17.31948066 252.268188 C-19.35005934 241.22046276 -21.35838536 230.16905137 -23.33981884 219.11241031 C-24.14271689 214.6402659 -24.95362286 210.16956684 -25.76362038 205.69870377 C-26.17914711 203.39132121 -26.59044848 201.08317311 -26.9971981 198.77422714 C-27.53961027 195.69533122 -28.09582321 192.61924991 -28.65551758 189.54345703 C-28.88261004 188.21872061 -28.88261004 188.21872061 -29.11429024 186.86722183 C-29.33631269 185.67056711 -29.33631269 185.67056711 -29.56282043 184.44973755 C-29.68460568 183.76516039 -29.80639093 183.08058323 -29.93186665 182.37526131 C-30.7137049 180.12786015 -31.7123397 179.03807517 -33.5625 177.5625 C-35.69393753 177.52559017 -35.69393753 177.52559017 -37.5625 178.5625 C-38.83583162 181.58834874 -39.71504639 184.4009007 -40.5625 187.5625 C-41.07389023 189.41844788 -41.07389023 189.41844788 -41.59561157 191.31188965 C-42.87173949 195.98635633 -44.10158567 200.6727181 -45.33203125 205.359375 C-45.80490379 207.15219087 -46.27799287 208.94494963 -46.75128174 210.73765564 C-48.02927222 215.5820572 -49.30325432 220.42750442 -50.57625198 225.27322006 C-51.37995449 228.33135212 -52.18477762 231.38918713 -52.98995972 234.44692993 C-61.28875816 265.9645164 -69.49366466 297.50585124 -77.64255619 329.06248665 C-78.77064969 333.43102435 -79.89889606 337.79952253 -81.02734375 342.16796875 C-81.25097784 343.03370136 -81.47461193 343.89943398 -81.70502281 344.79140091 C-89.44590762 374.75151748 -97.27078852 404.68980283 -105.12703323 434.61985588 C-107.63289626 444.16700998 -110.12509298 453.71721975 -112.5760498 463.27862549 C-113.6757561 467.56409679 -114.78635169 471.84669053 -115.89959717 476.12866211 C-116.37197626 477.95776482 -116.83893351 479.78827911 -117.29962158 481.62036133 C-120.70049859 495.1408816 -124.2547557 505.7923978 -136.5625 513.5625 C-140.08998161 515.59776717 -143.68815829 517.39727501 -147.375 519.125 C-148.87244751 519.83269531 -148.87244751 519.83269531 -150.40014648 520.5546875 C-169.70103783 529.42823907 -190.92710389 534.6485043 -212.1875 534.875 C-213.10273437 534.90400391 -214.01796875 534.93300781 -214.9609375 534.96289062 C-220.67507569 535.01656389 -224.1495246 534.55803178 -228.5625 530.5625 C-231.7918573 526.29720183 -233.4598344 522.33640553 -234.63085938 517.17651367 C-234.80721924 516.44496126 -234.9835791 515.71340885 -235.1652832 514.95968819 C-235.75734489 512.49008416 -236.33170864 510.01670292 -236.90625 507.54296875 C-237.335801 505.73399189 -237.76637732 503.92525826 -238.19787598 502.116745 C-239.40593127 497.03798577 -240.59777509 491.95553513 -241.78686523 486.87230682 C-242.85534106 482.31288177 -243.93243822 477.75550838 -245.009305 473.19805908 C-248.22100137 459.60440251 -251.41161207 446.00586041 -254.59608322 432.40580893 C-254.75714096 431.7179778 -254.91819869 431.03014667 -255.08413696 430.32147217 C-255.24601814 429.630115 -255.40789932 428.93875783 -255.57468599 428.22645044 C-257.4267554 420.31778167 -259.2829904 412.41009131 -261.1394043 404.50244141 C-261.4840105 403.03445736 -261.82861467 401.56647285 -262.17321682 400.09848785 C-262.692299 397.88724349 -263.21138431 395.67599987 -263.73048085 393.46475887 C-265.64028654 385.32931738 -267.54955928 377.19375088 -269.45849609 369.05810547 C-269.6295276 368.32920514 -269.8005591 367.60030481 -269.97677338 366.8493166 C-272.48897902 356.14244406 -274.99832844 345.43490464 -277.50634766 334.72705078 C-280.26498364 322.949203 -283.02884034 311.17259628 -285.79895973 299.39744282 C-287.22645173 293.32865567 -288.65131628 287.25927895 -290.06982422 281.18838501 C-291.38630376 275.5542204 -292.70934958 269.92164092 -294.03771019 264.29026604 C-294.5208447 262.23672053 -295.001488 260.18258712 -295.47948647 258.12784004 C-296.12658641 255.34777601 -296.78244827 252.56992778 -297.44067383 249.79248047 C-297.6279731 248.97815709 -297.81527237 248.16383371 -298.00824738 247.32483387 C-298.9719163 243.02446786 -298.9719163 243.02446786 -301.5625 239.5625 C-304.16530568 239.88291397 -304.16530568 239.88291397 -306.5625 240.5625 C-311.13143394 254.49509043 -314.92339228 268.63214035 -318.74180913 282.78466702 C-319.66942683 286.21996589 -320.60072557 289.65426682 -321.53160095 293.08868408 C-323.30100849 299.61890147 -325.0673488 306.14994414 -326.83248371 312.68131757 C-328.79599576 319.94629642 -330.76243254 327.21048215 -332.72936368 334.47453594 C-333.30954214 336.61738282 -333.88955975 338.76027318 -334.46953392 340.90317535 C-336.18305117 347.23387368 -337.89739978 353.56434136 -339.61594379 359.89367723 C-340.5427888 363.30724143 -341.46902327 366.7209711 -342.39501953 370.13476562 C-342.57435697 370.79577365 -342.75369441 371.45678167 -342.93846631 372.13782024 C-345.08662519 380.05939774 -347.21068877 387.98684731 -349.29669666 395.92504501 C-350.37821689 400.03774993 -351.47024901 404.14762551 -352.56344414 408.2572403 C-353.05102742 410.10306587 -353.53312037 411.95035267 -354.00905037 413.79921722 C-360.07340867 437.35487231 -360.07340867 437.35487231 -370.625 444.44921875 C-379.61984608 449.61762829 -390.77765997 448.77621661 -400.82568359 448.80273438 C-403.05734016 448.81247747 -405.28808832 448.84359196 -407.51953125 448.875 C-423.80072748 448.99716186 -423.80072748 448.99716186 -430.4375 442.9375 C-433.87652901 437.47551274 -435.15108707 433.57274939 -433.88471985 427.09608459 C-433.55377899 425.79225458 -433.21318014 424.49084941 -432.86450195 423.19165039 C-432.68204831 422.48909402 -432.49959467 421.78653765 -432.31161213 421.06269169 C-430.40319196 413.79225605 -428.30472845 406.57720164 -426.16796875 399.37109375 C-425.74374096 397.93104112 -425.31983667 396.49089316 -424.89622498 395.05065918 C-423.99119688 391.97562146 -423.08429172 388.9011466 -422.17584229 385.82711792 C-419.95164658 378.30004328 -417.73801506 370.76985747 -415.52318573 363.24002266 C-414.74888562 360.60793331 -413.97421537 357.97595308 -413.19952393 355.34397888 C-408.06262494 337.88659273 -402.97652787 320.41453311 -397.89696121 302.94039536 C-395.74233618 295.52894449 -393.58623944 288.11792164 -391.4296875 280.70703125 C-391.19039331 279.88469309 -390.95109913 279.06235493 -390.7045536 278.21509743 C-386.96125374 265.35277397 -383.2070674 252.49365643 -379.4453125 239.63671875 C-379.19132061 238.76858488 -378.93732872 237.90045101 -378.67564011 237.00601006 C-375.88906344 227.48246248 -373.09951814 217.95979085 -370.30615234 208.43823242 C-369.31848619 205.07085902 -368.33103818 201.70342173 -367.34375 198.3359375 C-367.10185566 197.51095827 -366.85996132 196.68597904 -366.61073685 195.83600044 C-363.26087618 184.40742395 -359.94257172 172.97011826 -356.6488266 161.52524948 C-355.33067399 156.94869914 -354.00737263 152.3736343 -352.68407059 147.79857063 C-351.45560551 143.54866572 -350.23622726 139.29629473 -349.02389526 135.0417614 C-348.46214046 133.07645531 -347.89567152 131.11258398 -347.32702637 129.14926147 C-346.64326543 126.78832027 -345.9669745 124.42519635 -345.29992676 122.05947876 C-341.78729667 110.03197141 -341.78729667 110.03197141 -336.81762695 106.22631836 C-336.23456787 105.95440674 -335.65150879 105.68249512 -335.05078125 105.40234375 C-334.05159668 104.92800903 -334.05159668 104.92800903 -333.03222656 104.4440918 C-331.96439941 103.97676636 -331.96439941 103.97676636 -330.875 103.5 C-330.1231543 103.16202393 -329.37130859 102.82404785 -328.59667969 102.47583008 C-311.53870614 95.02940957 -285.3392633 86.63691223 -267 92.75 C-260.35404044 97.69186737 -259.23511923 103.52655029 -257.47265625 111.2578125 C-257.18091019 112.48762848 -256.88916412 113.71744446 -256.58857727 114.98452759 C-255.9371656 117.73150115 -255.29451826 120.4803397 -254.65814209 123.23083496 C-253.59141543 127.84093613 -252.50574017 132.44646858 -251.41845703 137.05175781 C-249.73896248 144.17425868 -248.0690967 151.29896991 -246.40380859 158.42480469 C-243.31587852 171.63412122 -240.19933215 184.83665201 -237.08203125 198.0390625 C-235.91167121 202.99696235 -234.74145794 207.95489683 -233.57128906 212.9128418 C-233.27441633 214.17062659 -232.9775436 215.42841139 -232.67167473 216.72431087 C-229.74495669 229.12558289 -226.82301612 241.52797884 -223.90150273 253.93047768 C-216.11439531 286.98843977 -208.32253011 320.04528116 -200.51179504 353.0976696 C-198.60426596 361.1698911 -196.69835437 369.24249055 -194.79469174 377.31562477 C-193.4948244 382.82746404 -192.19291675 388.33881882 -190.88939029 393.84979385 C-190.13566994 397.03657818 -189.38313462 400.22363415 -188.63238335 403.41111946 C-187.81582174 406.87730867 -186.99586788 410.34267824 -186.17504883 413.80786133 C-185.93785818 414.81828869 -185.70066753 415.82871605 -185.45628929 416.86976242 C-183.84467954 423.81731608 -183.84467954 423.81731608 -181.5625 430.5625 C-179.69157319 431.80151711 -179.69157319 431.80151711 -177.5625 431.5625 C-174.36913112 429.16630008 -173.73958894 426.47191635 -172.75439453 422.69970703 C-172.426595 421.46562607 -172.09879547 420.2315451 -171.76106262 418.96006775 C-171.40567683 417.58018429 -171.05043205 416.2002645 -170.6953125 414.8203125 C-170.31003126 413.35506517 -169.92378791 411.89007055 -169.53666687 410.42530823 C-168.69257482 407.22372518 -167.85496228 404.02053863 -167.02212524 400.81600952 C-165.66145725 395.58137883 -164.28638854 390.35059664 -162.90893555 385.12036133 C-161.40912645 379.42315727 -159.91020744 373.72572708 -158.41575623 368.02711487 C-154.52083746 353.17763576 -150.58840267 338.33837448 -146.63671875 323.50390625 C-146.34216293 322.39808575 -146.04760712 321.29226524 -145.74412537 320.15293503 C-144.5391161 315.62950907 -143.33389645 311.10613925 -142.12837601 306.5828495 C-138.72359112 293.80757788 -135.32431164 281.03084293 -131.92578125 268.25390625 C-131.6180629 267.0970998 -131.31034454 265.94029335 -130.99330139 264.74843216 C-124.33873365 239.73103037 -117.69881245 214.70974955 -111.0625 189.6875 C-110.5235612 187.65547646 -109.98462078 185.62345334 -109.44567871 183.59143066 C-109.18059824 182.59197229 -108.91551777 181.59251392 -108.64240456 180.56276894 C-107.32281679 175.58741467 -106.00321763 170.61206343 -104.68359375 165.63671875 C-104.42660831 164.66780827 -104.16962288 163.69889778 -103.90485001 162.70062637 C-100.15878905 148.57718481 -96.41070203 134.45428251 -92.66015625 120.33203125 C-92.42457378 119.44486105 -92.18899132 118.55769085 -91.94626999 117.6436367 C-89.47281934 108.32928638 -86.99694587 99.015594 -84.51367188 89.70385742 C-83.68738343 86.60468601 -82.86123677 83.50547684 -82.03515625 80.40625 C-81.73902372 79.29554107 -81.73902372 79.29554107 -81.43690872 78.16239357 C-79.20098559 69.77278761 -76.98616542 61.37852373 -74.81858826 52.97093201 C-73.79855399 49.01517922 -72.76855045 45.06205968 -71.73751831 41.10916138 C-71.09399119 38.6217235 -70.46746995 36.13046411 -69.84204102 33.63842773 C-69.46854854 32.20532166 -69.0941899 30.77244088 -68.71875 29.33984375 C-68.41775391 28.15640381 -68.11675781 26.97296387 -67.80664062 25.75366211 C-65.87756296 20.80566874 -62.86222181 16.70366137 -57.91796875 14.40234375 C-56.91527954 13.92800903 -56.91527954 13.92800903 -55.89233398 13.4440918 C-55.18536377 13.1325415 -54.47839355 12.82099121 -53.75 12.5 C-52.63057007 11.99303589 -52.63057007 11.99303589 -51.48852539 11.47583008 C-44.02721034 8.1819689 -36.45412756 5.60313133 -28.5625 3.5625 C-26.72365234 3.08296875 -26.72365234 3.08296875 -24.84765625 2.59375 C-16.58141492 0.75112035 -8.4510168 0.18202387 0 0 Z " fill="#00AEEF" transform="translate(1319.5625,19.4375)"/>
<path d="M0 0 C4.87706247 -0.15895611 8.21985776 -0.12104672 12.13671875 3.1640625 C13.70670709 6.30403918 13.2661642 9.65582611 13.25024414 13.10205078 C13.25039017 13.92164276 13.25053619 14.74123474 13.25068665 15.58566284 C13.24998849 18.3019269 13.24220063 21.01812288 13.234375 23.734375 C13.23251048 25.61481692 13.23108673 27.49525933 13.23008728 29.3757019 C13.22626482 34.33068172 13.21643683 39.28563233 13.2053833 44.24060059 C13.19516336 49.29451095 13.19058841 54.34842603 13.18554688 59.40234375 C13.17481434 69.32292951 13.15774115 79.24349358 13.13671875 89.1640625 C13.89375092 89.0748201 14.65078308 88.9855777 15.43075562 88.89363098 C18.92329168 88.48498234 22.41669458 88.08424935 25.91015625 87.68359375 C27.1005249 87.54312622 28.29089355 87.40265869 29.51733398 87.25793457 C65.11642006 83.20733914 101.15852336 87.86998182 129.94921875 110.6015625 C153.17861143 130.32463175 163.16747694 159.5316162 165.703125 189.1171875 C166.35724846 199.01955946 166.3227427 208.93591999 166.32202148 218.85620117 C166.32419836 222.1952814 166.34238576 225.53402517 166.36132812 228.87304688 C166.40707914 245.89919566 166.20786729 263.31977527 161.94921875 279.9140625 C161.7363623 280.76983887 161.52350586 281.62561523 161.30419922 282.50732422 C154.45451567 308.76201034 139.3714787 330.93917358 115.76171875 344.7890625 C109.67687384 348.17996594 103.40564059 350.77352754 96.82421875 353.0390625 C96.04449707 353.31314941 95.26477539 353.58723633 94.46142578 353.86962891 C79.35289777 358.74442134 63.64403204 359.69114412 47.88671875 359.5390625 C47.02742767 359.53474213 46.1681366 359.53042175 45.2828064 359.52597046 C14.83117643 359.34825562 -15.10712525 355.34844223 -44.80078125 348.6015625 C-45.6407666 348.41609863 -46.48075195 348.23063477 -47.34619141 348.03955078 C-53.47309308 346.56589575 -58.24092616 344.59759513 -61.86328125 339.1640625 C-62.11743158 336.73895895 -62.11743158 336.73895895 -62.12334347 333.79570961 C-62.13040906 332.67464998 -62.13747465 331.55359035 -62.14475435 330.39855921 C-62.14233927 329.16171393 -62.13992418 327.92486865 -62.13743591 326.65054321 C-62.14267259 325.34068746 -62.14790927 324.03083171 -62.15330464 322.68128335 C-62.16751698 319.03778882 -62.16914732 315.39437946 -62.16870773 311.75086117 C-62.17035308 307.82438318 -62.18341424 303.89794057 -62.19490051 299.97148132 C-62.2177708 291.38275472 -62.22567317 282.79405278 -62.23072696 274.20529985 C-62.23398136 268.84476254 -62.24050224 263.48423243 -62.24772835 258.12369919 C-62.26729624 243.28817539 -62.28369957 228.45265828 -62.28660488 213.61712074 C-62.28679245 212.6673807 -62.28698002 211.71764067 -62.28717327 210.73912062 C-62.28753953 208.81368629 -62.28790323 206.88825196 -62.28826439 204.96281762 C-62.2884472 204.00700187 -62.28863001 203.05118612 -62.28881836 202.06640625 C-62.28899891 201.10942696 -62.28917946 200.15244768 -62.28936548 199.16646902 C-62.29290852 183.65354507 -62.31993814 168.14075982 -62.35731625 152.62788399 C-62.39536576 136.70927272 -62.41476211 120.79073034 -62.41506439 104.87207258 C-62.41564969 95.93094847 -62.42418824 86.98998984 -62.45306206 78.04890823 C-62.47753104 70.43671537 -62.48488926 62.82474833 -62.46981453 55.21252681 C-62.46262733 51.32726004 -62.46358013 47.44243958 -62.48622513 43.55722237 C-62.51052209 39.34833371 -62.49623052 35.14046801 -62.47801208 30.93154907 C-62.49121205 29.69916524 -62.50441202 28.4667814 -62.51801199 27.1970526 C-62.42676216 18.0116283 -62.42676216 18.0116283 -59.45254612 14.95398521 C-42.36687308 3.14289759 -20.17156424 1.15580586 0 0 Z M13.13671875 151.1640625 C13.13671875 198.3540625 13.13671875 245.5440625 13.13671875 294.1640625 C32.17540878 297.62564251 57.24222357 302.07390558 74.51171875 290.5390625 C84.7502882 281.87731915 88.52083166 270.11186285 90.13671875 257.1640625 C90.23721972 254.87392195 90.29430073 252.58156907 90.3137207 250.28930664 C90.3202919 249.64098877 90.3268631 248.9926709 90.33363342 248.32470703 C90.35318297 246.1995426 90.36499252 244.07444849 90.375 241.94921875 C90.37907553 241.21436186 90.38315105 240.47950497 90.38735008 239.72237968 C90.40814089 235.82656012 90.42246817 231.93077496 90.43188477 228.03491211 C90.44288746 224.0579946 90.47723537 220.08164609 90.51705647 216.10492802 C90.54350512 213.00663893 90.55160162 209.90847918 90.55516624 206.8100872 C90.55996594 205.34678782 90.57138433 203.88349148 90.59020424 202.42030525 C90.7749367 187.09618403 88.63440792 170.2165232 78.01171875 158.3515625 C69.02302999 150.01337096 58.21171843 148.98363697 46.57421875 148.9765625 C45.57197266 148.96431641 44.56972656 148.95207031 43.53710938 148.93945312 C33.2000799 148.92025121 23.59953428 150.11778095 13.13671875 151.1640625 Z " fill="#004D6D" transform="translate(65.86328125,108.8359375)"/>
<path d="M0 0 C1.71978342 1.71978342 1.13008295 3.99356289 1.13422108 6.34090042 C1.13867892 7.50674549 1.14313676 8.67259057 1.14772969 9.87376428 C1.14754533 11.17090852 1.14736097 12.46805275 1.14717102 13.80450439 C1.15046776 15.18361317 1.15419292 16.56272097 1.1583125 17.94182754 C1.16836245 21.7494438 1.17205409 25.55704429 1.17470181 29.36467195 C1.17859606 33.46431799 1.18817503 37.56395144 1.19691467 41.66358948 C1.21670481 51.57355053 1.22674886 61.48351264 1.23564246 71.39348853 C1.2400215 76.05604534 1.24538933 80.71860101 1.25063133 85.38115692 C1.26764673 100.87370188 1.28214169 116.36624611 1.28938007 131.85879898 C1.29129009 135.88194022 1.2932104 139.90508144 1.29516602 143.92822266 C1.29564976 144.92820155 1.2961335 145.92818045 1.2966319 146.95846173 C1.30493507 163.16340421 1.33027544 179.36827294 1.36274669 195.57318321 C1.39578642 212.19685293 1.41382607 228.82048514 1.41702431 245.44418788 C1.41919236 254.78326534 1.42798385 264.12223529 1.45348549 273.46128082 C1.47515045 281.41385182 1.48326374 289.36628921 1.47351871 297.31888637 C1.46896164 301.37825135 1.47094133 305.4373404 1.49028015 309.49666786 C1.50782511 313.21146334 1.50698541 316.92577984 1.49138286 320.64057979 C1.4878598 322.62416198 1.50409765 324.60774869 1.52098733 326.5912621 C1.51240644 327.76753816 1.50382555 328.94381423 1.49498463 330.15573502 C1.49596144 331.17094483 1.49693824 332.18615464 1.49794465 333.23212838 C0.86345968 336.75897206 -0.54931515 338.43372813 -3 341 C-10.46412019 345.05816244 -19.49572357 346.39459212 -27.75 348 C-29.03898193 348.25418701 -30.32796387 348.50837402 -31.65600586 348.77026367 C-55.86717373 353.44559599 -80.36431493 356.18451031 -105.02685547 356.24023438 C-107.60026808 356.24990704 -110.17286821 356.28102925 -112.74609375 356.3125 C-128.01611847 356.41116513 -143.19452391 354.97149696 -157.6875 349.875 C-158.55632812 349.5749707 -159.42515625 349.27494141 -160.3203125 348.96582031 C-184.44124443 340.27909703 -203.94827871 323.35863214 -214.96191406 299.95605469 C-225.87320901 275.30212364 -227.36412799 249.41753606 -227.26074219 222.77978516 C-227.25000898 219.50274162 -227.26071878 216.22624601 -227.2734375 212.94921875 C-227.2857222 196.04896052 -227.03866061 178.71769447 -222.8125 162.25 C-222.59964355 161.39422363 -222.38678711 160.53844727 -222.16748047 159.65673828 C-215.49903768 134.09674399 -200.9434755 111.74358378 -177.87817383 98.17456055 C-149.8930563 82.3781439 -117.51006047 80.64581641 -86.21484375 84.51953125 C-85.03144409 84.66120728 -83.84804443 84.8028833 -82.62878418 84.94885254 C-79.75185038 85.29402646 -76.87566915 85.64447067 -74 86 C-74.01776489 85.12605087 -74.03552979 84.25210175 -74.05383301 83.35166931 C-74.21441307 75.09831677 -74.33606972 66.84549188 -74.41449738 58.5909338 C-74.45617541 54.34745865 -74.51266138 50.10527859 -74.60351562 45.86254883 C-74.69071621 41.76459178 -74.73832966 37.66787667 -74.75901794 33.56906319 C-74.7737518 32.00885024 -74.80252653 30.44870212 -74.84584045 28.88902092 C-75.17091886 16.69355122 -75.17091886 16.69355122 -72.27096558 12.4992218 C-60.13546947 1.62933394 -14.19708069 -11.44925862 0 0 Z M-140.6875 157.5 C-150.63824352 169.54085403 -151.31704158 185.71762027 -151.30078125 200.578125 C-151.30467978 202.07729203 -151.30901677 203.57645798 -151.31376648 205.07562256 C-151.32118812 208.20556225 -151.32096785 211.33538908 -151.31567383 214.46533203 C-151.30989548 218.43668134 -151.32679024 222.40756178 -151.3500185 226.37883377 C-151.36489802 229.47276418 -151.36560827 232.56658548 -151.36250877 235.66054535 C-151.36301524 237.12267736 -151.36812302 238.58481661 -151.37832069 240.04691315 C-151.47673236 256.13134925 -149.48859942 272.81745834 -138 285 C-126.63242998 294.98899791 -112.28523319 294.74673407 -98 294 C-85.8253606 293.4874921 -85.8253606 293.4874921 -74 291 C-74 243.81 -74 196.62 -74 148 C-90.30137345 146.24451151 -90.30137345 146.24451151 -106.5625 145.6875 C-107.63306641 145.67138672 -108.70363281 145.65527344 -109.80664062 145.63867188 C-121.8931825 145.63128853 -132.11755885 148.72689215 -140.6875 157.5 Z " fill="#004D6D" transform="translate(1914,112)"/>
<path d="M0 0 C24.04545106 20.82389201 34.91869842 51.73859881 37.265625 82.76171875 C37.5773432 89.47830806 37.59606903 96.19753628 37.58129883 102.92016602 C37.57808968 105.98293128 37.6018674 109.04477188 37.62695312 112.10742188 C37.62922213 114.06900921 37.62993148 116.03059912 37.62890625 117.9921875 C37.638116 118.90050827 37.64732574 119.80882904 37.65681458 120.74467468 C37.62151686 125.55535136 37.46012595 128.89636792 34.265625 132.76171875 C30.75388177 135.1028809 29.36310123 135.0091665 25.21028137 135.00222778 C23.94403427 135.00497711 22.67778717 135.00772644 21.37316895 135.01055908 C19.96728421 135.00348078 18.56140043 134.99621116 17.15551758 134.98876953 C15.67726143 134.98820548 14.19900472 134.98852187 12.7207489 134.98965454 C8.7044768 134.99022928 4.68832372 134.97845548 0.67207932 134.96450663 C-3.52397165 134.95201936 -7.72002523 134.95083035 -11.91609192 134.94845581 C-19.86336144 134.94223514 -27.81057606 134.9258164 -35.75782138 134.90575683 C-44.80486951 134.88341608 -53.85192024 134.87240899 -62.89898908 134.86236596 C-81.51081554 134.84145067 -100.12259086 134.8062633 -118.734375 134.76171875 C-118.28865699 137.79162076 -117.83431279 140.81981067 -117.375 143.84765625 C-117.1886499 145.12370728 -117.1886499 145.12370728 -116.99853516 146.42553711 C-115.21510876 158.06267478 -110.99399724 169.10293628 -101.44921875 176.54296875 C-88.88088609 184.66956102 -75.72603393 184.20910907 -61.296875 184.07421875 C-59.24511808 184.06554117 -57.19336024 184.05708014 -55.14160156 184.04882812 C-40.99576826 183.95769355 -26.89535098 183.45422592 -12.78344727 182.47387695 C-5.53767399 181.97289234 1.70694762 181.59707726 8.96875 181.44921875 C9.72267029 181.41948975 10.47659058 181.38976074 11.25335693 181.35913086 C14.97082888 181.31917274 17.03828795 181.6160641 20.19897461 183.64111328 C27.34958275 190.97840594 26.76896864 202.17010507 26.67431641 211.7355957 C26.4849897 218.40620668 25.85605901 224.54710946 23.265625 230.76171875 C22.894375 231.75171875 22.523125 232.74171875 22.140625 233.76171875 C17.14568834 239.08965118 7.02725836 239.84553191 0.140625 241.26171875 C-0.89618408 241.47602539 -1.93299316 241.69033203 -3.0012207 241.91113281 C-13.83574606 244.08344409 -24.74308721 245.63680253 -35.734375 246.76171875 C-36.65919678 246.85743164 -37.58401855 246.95314453 -38.53686523 247.05175781 C-48.18840398 247.92313693 -57.84159243 247.98229608 -67.52514648 248.00195312 C-70.39922217 248.01164238 -73.27257584 248.04275888 -76.14648438 248.07421875 C-105.00724808 248.23958019 -133.17192888 241.54082787 -155.734375 222.76171875 C-156.435625 222.22289062 -157.136875 221.6840625 -157.859375 221.12890625 C-179.56751483 203.70987469 -189.2882908 175.09154684 -192.25561523 148.35668945 C-192.87329155 142.03942593 -192.91493976 135.74168804 -192.9375 129.3984375 C-192.94320007 128.13062943 -192.94890015 126.86282135 -192.95477295 125.55659485 C-192.96418184 122.87973466 -192.97109885 120.20298534 -192.97460938 117.52612305 C-192.97896746 114.8277413 -192.99276861 112.12968409 -193.015625 109.43139648 C-193.30963968 71.9468219 -188.49175361 36.8005784 -162.734375 7.76171875 C-161.79658203 6.69824219 -161.79658203 6.69824219 -160.83984375 5.61328125 C-121.1874313 -36.62697285 -43.1126243 -35.29076246 0 0 Z M-108.046875 49.32421875 C-116.45090398 60.66541342 -118.734375 73.93575541 -118.734375 87.76171875 C-91.344375 87.76171875 -63.954375 87.76171875 -35.734375 87.76171875 C-36.90591049 70.18868639 -38.28241293 55.97506585 -51.41015625 43.671875 C-67.83983476 30.16916442 -94.39766029 33.57905721 -108.046875 49.32421875 Z " fill="#004D6D" transform="translate(1623.734375,220.23828125)"/>
<path d="M0 0 C25.04698164 22.85947232 35.37923367 54.19363577 37.3203125 87.5078125 C37.5120222 93.25260339 37.54765994 98.99851978 37.56054688 104.74609375 C37.5703715 107.39874275 37.60154948 110.05065285 37.6328125 112.703125 C37.63933396 114.40624548 37.64458778 116.10937139 37.6484375 117.8125 C37.6607843 118.59696503 37.6731311 119.38143005 37.68585205 120.18966675 C37.66630972 125.0189165 37.01416683 128.33604687 34.3203125 132.5078125 C30.80856927 134.84897465 29.41778873 134.75526025 25.26496887 134.74832153 C23.99872177 134.75107086 22.73247467 134.75382019 21.42785645 134.75665283 C20.02197171 134.74957453 18.61608793 134.74230491 17.21020508 134.73486328 C15.73194893 134.73429923 14.25369222 134.73461562 12.7754364 134.73574829 C8.7591643 134.73632303 4.74301122 134.72454923 0.72676682 134.71060038 C-3.46928415 134.69811311 -7.66533773 134.6969241 -11.86140442 134.69454956 C-19.80867394 134.68832889 -27.75588856 134.67191015 -35.70313388 134.65185058 C-44.75018201 134.62950983 -53.79723274 134.61850274 -62.84430158 134.60845971 C-81.45612804 134.58754442 -100.06790336 134.55235705 -118.6796875 134.5078125 C-118.22351705 137.72374669 -117.75718316 140.93812911 -117.2890625 144.15234375 C-117.16063965 145.05859497 -117.0322168 145.96484619 -116.89990234 146.89855957 C-115.21970938 158.34943989 -111.56798127 167.4552804 -102.68359375 175.26171875 C-90.07243268 184.49447704 -75.9431488 184.08752142 -61.0546875 183.8828125 C-59.00871249 183.86905653 -56.96273236 183.85604463 -54.91674805 183.84375 C-39.60815879 183.71263105 -24.37090137 182.95506672 -9.09765625 181.97265625 C-2.83409205 181.57109475 3.41981753 181.2046408 9.6953125 181.0703125 C10.42645264 181.03615234 11.15759277 181.00199219 11.91088867 180.96679688 C15.67254255 180.93365861 17.20405933 181.41547517 20.1875 183.78515625 C21.99916055 186.09784381 23.16117514 187.75822633 24.0703125 190.5078125 C24.29203125 191.1471875 24.51375 191.7865625 24.7421875 192.4453125 C27.96784272 203.95305543 27.87335492 219.38160645 23.3203125 230.5078125 C20.06820584 235.62362644 17.4965994 237.26094178 11.63500977 238.61010742 C10.76803467 238.7826001 9.90105957 238.95509277 9.0078125 239.1328125 C8.08991943 239.33173096 7.17202637 239.53064941 6.22631836 239.7355957 C3.2634809 240.36130824 0.2951049 240.94180367 -2.6796875 241.5078125 C-3.66098633 241.69617676 -4.64228516 241.88454102 -5.65332031 242.07861328 C-12.63905217 243.3905902 -19.64267498 244.50903393 -26.6796875 245.5078125 C-27.91452881 245.68787842 -27.91452881 245.68787842 -29.17431641 245.87158203 C-43.01748259 247.7863964 -56.9815642 247.73974112 -70.9296875 247.8203125 C-71.86840698 247.82994019 -72.80712646 247.83956787 -73.77429199 247.8494873 C-102.58770793 248.10242422 -131.92496254 242.36274969 -154.6796875 223.5078125 C-155.97132813 222.44240234 -155.97132813 222.44240234 -157.2890625 221.35546875 C-178.64568527 202.94347124 -189.55997035 175.85838214 -192.47819519 148.23243713 C-192.90574252 142.45104536 -192.86674016 136.65382113 -192.8828125 130.859375 C-192.88563988 130.16319439 -192.88846725 129.46701378 -192.89138031 128.74973679 C-192.90629735 125.05792628 -192.91557134 121.36615402 -192.91992188 117.67431641 C-192.92428802 114.66442621 -192.93811728 111.65482564 -192.9609375 108.64501953 C-193.24744121 70.0808844 -188.37166437 34.52087451 -160.6796875 5.5078125 C-160.15246094 4.90582031 -159.62523437 4.30382812 -159.08203125 3.68359375 C-121.68364755 -37.34941548 -39.88137439 -35.42950004 0 0 Z M-107.38671875 48.31640625 C-116.75907594 59.72932728 -118.6796875 73.2360157 -118.6796875 87.5078125 C-91.6196875 87.5078125 -64.5596875 87.5078125 -36.6796875 87.5078125 C-36.6796875 71.83472508 -37.88478641 58.21427723 -48.71484375 46.26171875 C-57.67887265 37.6455005 -67.96013458 35.09667502 -80.1328125 35.234375 C-91.25569862 36.09186622 -99.79154467 40.26934538 -107.38671875 48.31640625 Z " fill="#004D6D" transform="translate(451.6796875,220.4921875)"/>
<path d="M0 0 C7.3232888 11.63110575 7.72162106 27.3793999 4.75 40.5 C3.07472518 46.42667977 1.25170911 50.49886059 -4 54 C-13.14793323 54.7453222 -22.50801972 53.81342306 -31.64645386 53.20153809 C-43.83297017 52.39604594 -56.02716948 51.74450704 -68.23327637 51.32711792 C-69.68256699 51.27641241 -71.13172142 51.22161944 -72.58068848 51.16238403 C-80.95747334 50.82536865 -88.81048828 51.01994226 -97 53 C-97.73275146 53.13180664 -98.46550293 53.26361328 -99.22045898 53.39941406 C-100.10133179 53.6967041 -100.10133179 53.6967041 -101 54 C-102.86533015 58.01045983 -103.54834644 61.6132285 -103 66 C-98.39018005 75.84825172 -86.02151076 80.84335448 -76.9375 85.8125 C-74.71018462 87.04551598 -72.48362301 88.27989454 -70.2578125 89.515625 C-69.18305664 90.11181641 -68.10830078 90.70800781 -67.00097656 91.32226562 C-61.02060262 94.66567026 -55.13589725 98.16559986 -49.25048828 101.67236328 C-46.68685031 103.18473725 -44.10784038 104.66892581 -41.52734375 106.15234375 C-17.1692409 120.21733038 3.92323093 135.6793119 12 164 C16.17133817 185.86006679 13.00145888 208.18155418 1 227 C-13.22252788 246.91830629 -36.74139601 256.18280381 -60.08203125 260.0859375 C-70.04159199 261.45250948 -80.02626005 261.3506114 -90.0625 261.3125 C-91.08022491 261.31034485 -92.09794983 261.3081897 -93.14651489 261.30596924 C-115.76365324 261.22926565 -137.59110382 259.22362266 -159.8125 255 C-160.80260574 254.8119278 -160.80260574 254.8119278 -161.81271362 254.62005615 C-179.79508856 251.1508695 -179.79508856 251.1508695 -184.390625 246.66796875 C-190.64321318 236.30263447 -190.32285092 221.30136881 -188.4609375 209.6171875 C-187.16460576 204.38912431 -185.41017839 200.18021867 -182 196 C-178.97832164 194.48916082 -175.87770989 194.80967554 -172.5625 194.8125 C-171.31944092 194.8115332 -171.31944092 194.8115332 -170.05126953 194.81054688 C-163.22574224 194.86371083 -156.44061641 195.26463485 -149.63208008 195.71875 C-134.14396663 196.74885322 -118.69466166 197.24140882 -103.17071533 197.29956055 C-100.98803146 197.30813008 -98.80536107 197.321734 -96.6227417 197.34057617 C-93.53734609 197.36447242 -90.45265952 197.36713159 -87.3671875 197.36328125 C-86.45287964 197.37241043 -85.53857178 197.38153961 -84.59655762 197.39094543 C-77.64898231 197.34176982 -70.93690162 196.49636638 -65.5 191.875 C-62.9005338 186.89268979 -62.31770145 182.27432849 -63.9375 176.875 C-69.55895285 169.03903542 -77.72698005 164.55296129 -86 159.9375 C-87.73757192 158.951729 -89.47513449 157.96594077 -91.2119751 156.97888184 C-92.98565273 155.97193086 -94.7613197 154.96855258 -96.53710938 153.96533203 C-102.79605317 150.41312549 -109.00581353 146.77699484 -115.21411133 143.13720703 C-120.10503279 140.27001731 -125.00461138 137.42244614 -129.93359375 134.62109375 C-151.29595519 122.39789265 -169.93213676 107.66311772 -176.92626953 82.95629883 C-181.98954882 62.96190702 -181.15882929 41.40227773 -171.3984375 22.9765625 C-160.88156275 5.44843791 -143.73555618 -3.40271663 -124.43652344 -8.32543945 C-92.14811639 -16.072028 -28.97064156 -18.86460381 0 0 Z " fill="#004D6D" transform="translate(695,207)"/>
<path d="M0 0 C2.23106697 2.8339684 2.29333661 4.22479617 2.26055908 7.79754639 C2.26025696 8.89838562 2.25995483 9.99922485 2.25964355 11.13342285 C2.23899841 12.31583557 2.21835327 13.49824829 2.19708252 14.7164917 C2.19142273 15.93161438 2.18576294 17.14673706 2.17993164 18.39868164 C2.15753486 22.28106013 2.10732939 26.16251698 2.05645752 30.0446167 C2.03639692 32.67611379 2.01814539 35.30762534 2.00177002 37.93914795 C1.95765905 44.39128551 1.89071271 50.84288526 1.80645752 57.2946167 C3.11840088 57.26843262 4.43034424 57.24224854 5.78204346 57.215271 C10.6497085 57.12476823 15.51729922 57.06736676 20.38555908 57.0199585 C22.49245713 56.99481458 24.59926795 56.96069462 26.70587158 56.91741943 C29.73441071 56.85676302 32.76179682 56.82840587 35.79083252 56.80633545 C37.20353424 56.76762581 37.20353424 56.76762581 38.64477539 56.72813416 C45.19367569 56.72532562 45.19367569 56.72532562 48.36920166 59.67547607 C56.65810955 74.78052174 55.4711045 96.15981165 50.80645752 112.2946167 C49.48645752 114.6046167 48.16645752 116.9146167 46.80645752 119.2946167 C31.95645752 119.2946167 17.10645752 119.2946167 1.80645752 119.2946167 C1.89203677 137.35844772 1.98569983 155.4221761 2.0939846 173.48588276 C2.14401121 181.87401334 2.19045489 190.26213463 2.22833252 198.65032959 C2.26137306 205.96528171 2.30127002 213.28015958 2.34924757 220.59502953 C2.37439323 224.46473506 2.39620905 228.33439209 2.40980148 232.20415688 C2.42273106 235.85426805 2.44490004 239.50421189 2.47384071 243.15423012 C2.48708554 245.11659118 2.4908168 247.07900943 2.49415588 249.04141235 C2.56238099 256.3330051 3.21747341 263.17315972 4.80645752 270.2946167 C14.71200496 272.20099493 24.28308569 272.64166268 34.35528564 272.6852417 C36.07715088 272.72004639 36.07715088 272.72004639 37.83380127 272.7555542 C38.86239258 272.76377197 39.89098389 272.77198975 40.95074463 272.78045654 C44.53681305 273.42611441 46.20600381 274.78916853 48.80645752 277.2946167 C54.87937645 289.04023355 54.36724345 304.40705622 50.72052002 316.82977295 C49.20594736 320.9139411 47.79715061 324.29927016 43.71270752 326.3414917 C30.41832664 330.70147683 15.9087472 330.60856406 2.05645752 330.6696167 C1.32868103 330.67729065 0.60090454 330.6849646 -0.14892578 330.69287109 C-20.03964501 330.86029291 -40.92624688 328.25192594 -56.19354248 314.2946167 C-69.75444135 299.22695129 -73.32296145 279.35054193 -73.36090088 259.69216919 C-73.36669426 258.64826133 -73.37248765 257.60435348 -73.37845659 256.52881205 C-73.39644178 253.04368752 -73.40736553 249.558579 -73.41815186 246.07342529 C-73.42933333 243.5696956 -73.44084685 241.06596736 -73.45266724 238.5622406 C-73.48912852 230.35586412 -73.51449352 222.14947757 -73.53729248 213.9430542 C-73.53926738 213.24481618 -73.54124228 212.54657815 -73.54327703 211.8271814 C-73.58243548 197.95307816 -73.61609976 184.07896562 -73.63835907 170.20482445 C-73.64332789 167.16086183 -73.64837232 164.11689936 -73.65350342 161.07293701 C-73.65477409 160.31642812 -73.65604476 159.55991923 -73.65735394 158.78048582 C-73.67874365 146.50821371 -73.72778012 134.23620817 -73.78774756 121.96407036 C-73.84885226 109.35511255 -73.88354323 96.74629256 -73.89283228 84.13718855 C-73.8987431 77.06107054 -73.91649687 69.98540595 -73.96421814 62.90943527 C-74.00902932 56.25923724 -74.01841053 49.60966255 -74.00358963 42.95928383 C-74.00391927 40.51712785 -74.01627176 38.07493991 -74.04143906 35.63291359 C-74.07396016 32.30204278 -74.06345256 28.97399408 -74.04205322 25.64309692 C-74.06176099 24.67383911 -74.08146876 23.70458131 -74.10177374 22.70595205 C-73.99764504 16.30056859 -73.99764504 16.30056859 -71.66112614 13.37752652 C-69.9053765 11.844752 -68.16105895 10.53981409 -66.19354248 9.2946167 C-65.41752686 8.79832764 -64.64151123 8.30203857 -63.84197998 7.79071045 C-50.00880197 1.34948839 -13.39439102 -10.41355295 0 0 Z " fill="#004D6D" transform="translate(810.1935424804688,137.70538330078125)"/>
</svg>
