<?xml version="1.0" encoding="utf-8"?>
<!-- Generator: Adobe Illustrator 25.2.1, SVG Export Plug-In . SVG Version: 6.00 Build 0)  -->
<svg version="1.1"
	 id="Layer_1" inkscape:version="0.92.3 (2405546, 2018-03-11)" sodipodi:docname="Bonitas_2020_black.svg" xmlns:cc="http://creativecommons.org/ns#" xmlns:dc="http://purl.org/dc/elements/1.1/" xmlns:inkscape="http://www.inkscape.org/namespaces/inkscape" xmlns:rdf="http://www.w3.org/1999/02/22-rdf-syntax-ns#" xmlns:sodipodi="http://sodipodi.sourceforge.net/DTD/sodipodi-0.dtd" xmlns:svg="http://www.w3.org/2000/svg"
	 xmlns="http://www.w3.org/2000/svg" xmlns:xlink="http://www.w3.org/1999/xlink" x="0px" y="0px" viewBox="0 0 383 178.6"
	 style="enable-background:new 0 0 383 178.6;" xml:space="preserve">
<style type="text/css">
	.st0{fill:#184785;}
	.st1{fill:#BA8C60;}
</style>
<sodipodi:namedview  bordercolor="#666666" borderopacity="1" gridtolerance="10" guidetolerance="10" id="namedview36" inkscape:current-layer="Layer_1" inkscape:cx="191.5" inkscape:cy="89.309998" inkscape:pageopacity="0" inkscape:pageshadow="2" inkscape:window-height="777" inkscape:window-maximized="0" inkscape:window-width="1881" inkscape:window-x="-3" inkscape:window-y="141" inkscape:zoom="3.8093995" objecttolerance="10" pagecolor="#ffffff" showgrid="false">
	</sodipodi:namedview>
<path class="st0" d="M340.9,81.7l0.6,4.7c0,0-4.1-2-9-1.7c-2.9,0.2-4.8,1.2-6.4,2.4v23.8h-6.6V81.5l6.6-0.8v2.9
	c1.3-0.8,3.5-2.3,6.6-2.5C336.5,80.7,340.2,81.5,340.9,81.7L340.9,81.7z M166.5,108.3c2.5-0.2,7-0.7,7-4.9c0-1.4-1-2.5-2.6-3.5
	c-2.2-1.3-4.9-2.2-6-2.7c-4.3-1.8-9-3.9-9-8.2c0-5,3.7-8.5,12.6-8.5c4,0,8.7,1.1,8.7,1.1v4.6c0,0-5.1-2.6-9.5-2.6
	c-3.2,0-5.8,1-5.8,3.6c0,1.4,1,2.4,2.5,3.3c2.2,1.2,4.9,2.1,6,2.5c4.4,1.7,9,4,9,9.1c0,6.5-6,9.2-13.7,9.2c-6.3,0-10.1-1.2-10.1-1.2
	v-2.5C155.7,107.7,162.2,108.6,166.5,108.3L166.5,108.3z M210.9,86.2c0,0-5-2.6-9.3-2.6c-8,0-9.6,5.9-9.6,9.3
	c0,3.8,0.2,7.5,2.7,10.5c2.4,2.8,7.5,4.9,12.3,4.9c2,0,4.5-0.4,4.5-0.4v2.5c0,0-3.4,1.1-8.4,1.1c-13.4,0-18.3-6.8-18.3-16.3
	c0-7.9,4-14.5,15.2-14.5c6.7,0,11,1.1,11,1.1L210.9,86.2L210.9,86.2z M305.9,90.8c0-3.7-2.5-7.2-6.6-7.2c-6,0-7.4,4.9-7.7,7.2H305.9
	z M312.4,110.2c0,0-3.6,1.2-9.7,1.2c-11.2,0-17.8-5.8-17.8-16.3c0-9,4.2-14.5,15.5-14.5c7.3,0,13,4.3,13,11.9v1.3h-21.8
	c0,3.1,0.5,7.2,3.1,10.1c2.5,2.8,7.1,4.5,12.1,4.5c2.4,0,5.7-0.8,5.7-0.8L312.4,110.2L312.4,110.2z M250.5,82l6.6-0.9l10.7,22.1
	L278,81.1h5l-14.2,30.2h-4L250.5,82L250.5,82z M232.1,108.3c8,0,8.7-7.3,8.7-12.2c0-5.2-1.3-12.5-8.8-12.5c-8.3,0-8.8,7.3-8.8,12.5
	C223.2,100.8,224.6,108.3,232.1,108.3z M216,96.1c0-9.2,4.7-15.6,15.9-15.6C242,80.5,248,86.6,248,96c0,9.5-5.2,15.4-16,15.4
	C221.7,111.4,216,105.1,216,96.1z M139.7,71.4c0-2.1,2.1-3.8,4.7-3.8c2.5,0,4.6,1.7,4.6,3.8c0,2.2-2.1,3.8-4.6,3.8
	C141.7,75.2,139.7,73.5,139.7,71.4z M141.3,81.3l6.6-0.9v30.3h-6.6V81.3L141.3,81.3z M109.3,68.3c6.8,0,13.4,1.6,18,5.2
	c5,3.9,7.7,9.9,7.7,16c0,6.1-2.6,12.2-7.6,16c-4.6,3.6-11.3,5.2-18.1,5.2H96.8V68.3H109.3L109.3,68.3z M104.2,71.5v36.1
	c4.8,0,9.3-0.4,12.4-1.7c6.8-3.1,10.2-9.5,10.2-16.3c0-6.9-3.4-13.2-10.2-16.3C113.6,71.8,109,71.5,104.2,71.5z M345.2,81.3l6.4-0.8
	l8.7,21.7l9.9-21.7h4.9l-13.9,30.7c-2.3,4.9-6.4,11.4-13.8,11.4h-1.1V118c7.4,0.5,10.5-5.1,10.5-7.3c0-1.7-0.8-3.5-0.8-3.5
	L345.2,81.3L345.2,81.3z"/>
<path class="st1" d="M32.3,72.9c-1.9,1.8-3.7,3.7-5.5,5.7c5.8,6.3,11.7,12.4,17.8,18.3c6.1-6,12.1-12.1,17.8-18.3
	c-1.8-1.9-3.6-3.8-5.5-5.6c-4.1,3.9-8.3,7.9-12.3,11.9C40.6,80.8,36.5,76.8,32.3,72.9L32.3,72.9z M38,67.8c2.3,1.9,4.5,3.8,6.7,5.8
	c2.2-2,4.4-3.9,6.6-5.8c-2.1-1.8-4.4-3.5-6.7-5.2C42.4,64.3,40.2,66,38,67.8z M21.9,84.2c-1.4,1.8-2.8,3.6-4.1,5.4
	c7.4,10.2,16.5,19.3,26.8,26.6c10.3-7.3,19.4-16.3,26.7-26.6c-1.3-1.8-2.6-3.6-4-5.4c-6.8,8.5-14.5,16.3-22.7,23.4
	C36.5,100.4,28.8,92.7,21.9,84.2L21.9,84.2z M11.5,89.5c0-17.9,15-33.2,32.9-33.2c17.9,0,33,15.3,32.9,33.2
	c0,17.9-15,33.1-32.9,33.1C26.6,122.6,11.6,107.4,11.5,89.5z M7,89.5c0-20.8,16.8-37.7,37.5-37.7s37.5,16.8,37.5,37.7
	c0,20.8-16.8,37.7-37.5,37.7C23.8,127.1,7,110.3,7,89.5z M9.5,89.5c0,19.4,15.6,35.1,34.9,35.1s34.9-15.7,34.9-35.1
	c0-19.4-15.6-35.1-34.9-35.1C25.2,54.4,9.5,70.1,9.5,89.5z"/>
</svg>
