<?xml version="1.0" encoding="utf-8"?>
<!-- Generator: Adobe Illustrator 25.2.0, SVG Export Plug-In . SVG Version: 6.00 Build 0)  -->
<svg version="1.1" id="Layer_1" xmlns="http://www.w3.org/2000/svg" xmlns:xlink="http://www.w3.org/1999/xlink" x="0px" y="0px"
	 viewBox="0 0 271.22 100" style="enable-background:new 0 0 271.22 100;" xml:space="preserve">
<style type="text/css">
	.st0{fill:url(#SVGID_1_);}
	.st1{fill:#19242C;}
</style>
<g>
	<linearGradient id="SVGID_1_" gradientUnits="userSpaceOnUse" x1="84.0052" y1="81.2614" x2="258.1601" y2="81.2614">
		<stop  offset="0" style="stop-color:#F8BC1C"/>
		<stop  offset="0.9259" style="stop-color:#F8BC1C;stop-opacity:0.0741"/>
		<stop  offset="1" style="stop-color:#F8BC1C;stop-opacity:0"/>
	</linearGradient>
	<rect x="84.01" y="70.66" class="st0" width="174.15" height="21.2"/>
	<path class="st1" d="M204.17,85.05h4v-1.29h-2.63V82h2.51v-1.29h-2.51v-1.82h2.63v-1.29h-4V85.05z M192.85,85.05h1.38v-5.58h0.02
		l1.91,5.58h1.17l1.9-5.58h0.03v5.58h1.38v-7.44h-1.91l-1.96,5.63h-0.02l-1.98-5.63h-1.91V85.05z M185.32,85.05h4v-1.29h-2.63V82
		h2.51v-1.29h-2.51v-1.82h2.63v-1.29h-4V85.05z M176.3,85.05h1.38v-3.13h2.67v3.13h1.38v-7.44h-1.38v3.03h-2.67v-3.03h-1.38V85.05z
		 M171.53,82.98c-0.08,0.09-0.18,0.19-0.29,0.29c-0.11,0.11-0.24,0.21-0.4,0.31c-0.15,0.1-0.32,0.18-0.52,0.24
		c-0.2,0.06-0.42,0.1-0.67,0.1c-0.33,0-0.65-0.07-0.94-0.21c-0.3-0.14-0.56-0.32-0.79-0.56c-0.23-0.24-0.41-0.52-0.54-0.83
		c-0.13-0.31-0.2-0.64-0.2-1c0-0.3,0.05-0.58,0.14-0.84c0.09-0.26,0.21-0.5,0.37-0.71c0.16-0.21,0.34-0.4,0.54-0.55
		c0.2-0.15,0.43-0.27,0.66-0.35c0.23-0.08,0.47-0.12,0.72-0.12c0.41,0,0.78,0.09,1.1,0.26c0.33,0.17,0.62,0.41,0.89,0.72h1.57
		c-0.14-0.32-0.32-0.61-0.52-0.86c-0.2-0.25-0.42-0.46-0.67-0.64c-0.24-0.18-0.49-0.33-0.76-0.44c-0.26-0.11-0.53-0.2-0.79-0.25
		c-0.26-0.05-0.52-0.08-0.77-0.08c-0.43,0-0.84,0.07-1.23,0.2c-0.39,0.13-0.74,0.32-1.06,0.56c-0.32,0.24-0.6,0.52-0.83,0.84
		c-0.23,0.32-0.41,0.67-0.54,1.05c-0.13,0.38-0.19,0.77-0.19,1.19c0,0.42,0.07,0.83,0.2,1.21c0.13,0.39,0.31,0.74,0.55,1.07
		c0.24,0.33,0.52,0.61,0.84,0.85c0.32,0.24,0.68,0.43,1.07,0.56c0.39,0.13,0.8,0.2,1.23,0.2c0.36,0,0.71-0.05,1.06-0.15
		c0.35-0.1,0.67-0.25,0.98-0.44c0.31-0.19,0.58-0.43,0.82-0.7c0.24-0.27,0.44-0.58,0.58-0.92H171.53z M158.07,82.92
		c0.02,0.33,0.08,0.62,0.19,0.87c0.11,0.25,0.25,0.47,0.42,0.65c0.17,0.18,0.36,0.33,0.57,0.44c0.21,0.11,0.42,0.2,0.63,0.25
		c0.21,0.05,0.42,0.08,0.61,0.08c0.23,0,0.47-0.03,0.7-0.09c0.23-0.06,0.45-0.16,0.66-0.28c0.2-0.12,0.39-0.28,0.55-0.47
		c0.16-0.19,0.28-0.41,0.37-0.67c0.09-0.25,0.14-0.54,0.14-0.87c0-0.32-0.05-0.6-0.14-0.84c-0.09-0.24-0.21-0.44-0.37-0.61
		c-0.15-0.17-0.31-0.31-0.49-0.42c-0.18-0.11-0.35-0.2-0.51-0.27c-0.17-0.07-0.31-0.12-0.44-0.16c-0.19-0.06-0.36-0.12-0.51-0.18
		c-0.15-0.06-0.28-0.12-0.39-0.19c-0.11-0.07-0.19-0.16-0.25-0.27c-0.06-0.11-0.09-0.24-0.09-0.4c0-0.15,0.03-0.28,0.1-0.39
		c0.07-0.11,0.16-0.2,0.27-0.26c0.12-0.06,0.24-0.1,0.39-0.1c0.13,0,0.25,0.02,0.37,0.07c0.12,0.05,0.22,0.13,0.31,0.25
		c0.09,0.12,0.14,0.29,0.16,0.51h1.41c-0.02-0.3-0.07-0.57-0.17-0.8c-0.1-0.23-0.23-0.43-0.38-0.6c-0.16-0.17-0.33-0.3-0.52-0.41
		c-0.19-0.11-0.38-0.18-0.57-0.23c-0.19-0.05-0.38-0.08-0.55-0.08c-0.32,0-0.61,0.06-0.87,0.16c-0.26,0.11-0.49,0.26-0.69,0.45
		c-0.2,0.19-0.35,0.42-0.46,0.67c-0.11,0.26-0.16,0.54-0.16,0.83c0,0.31,0.05,0.58,0.13,0.8c0.08,0.22,0.19,0.41,0.33,0.56
		c0.14,0.15,0.28,0.28,0.44,0.38c0.16,0.1,0.31,0.18,0.47,0.24c0.15,0.06,0.29,0.11,0.4,0.16c0.23,0.09,0.44,0.16,0.61,0.24
		c0.18,0.07,0.33,0.15,0.44,0.24c0.12,0.09,0.21,0.19,0.27,0.31c0.06,0.12,0.09,0.28,0.09,0.47c0,0.19-0.05,0.35-0.15,0.49
		c-0.09,0.14-0.22,0.25-0.37,0.32c-0.15,0.08-0.32,0.12-0.51,0.12c-0.11,0-0.21-0.02-0.32-0.05c-0.11-0.04-0.21-0.09-0.3-0.17
		c-0.09-0.08-0.17-0.18-0.24-0.31c-0.06-0.13-0.11-0.28-0.12-0.47H158.07z M148.62,85.05h3.65v-1.29H150v-6.15h-1.38V85.05z
		 M141.86,79.55h0.02l0.84,2.28h-1.71L141.86,79.55z M138.24,85.05h1.52l0.79-1.92h2.67l0.79,1.92h1.52l-3.12-7.44h-1.08
		L138.24,85.05z M134.11,82.98c-0.08,0.09-0.18,0.19-0.29,0.29c-0.11,0.11-0.24,0.21-0.4,0.31c-0.15,0.1-0.32,0.18-0.52,0.24
		c-0.2,0.06-0.42,0.1-0.67,0.1c-0.33,0-0.65-0.07-0.94-0.21c-0.3-0.14-0.56-0.32-0.79-0.56c-0.23-0.24-0.41-0.52-0.54-0.83
		c-0.13-0.31-0.2-0.64-0.2-1c0-0.3,0.05-0.58,0.14-0.84c0.09-0.26,0.21-0.5,0.37-0.71c0.16-0.21,0.34-0.4,0.54-0.55
		c0.2-0.15,0.43-0.27,0.66-0.35c0.23-0.08,0.47-0.12,0.72-0.12c0.41,0,0.78,0.09,1.1,0.26c0.33,0.17,0.62,0.41,0.89,0.72h1.57
		c-0.14-0.32-0.32-0.61-0.52-0.86c-0.2-0.25-0.42-0.46-0.67-0.64c-0.24-0.18-0.49-0.33-0.76-0.44c-0.26-0.11-0.53-0.2-0.79-0.25
		c-0.26-0.05-0.52-0.08-0.77-0.08c-0.43,0-0.84,0.07-1.23,0.2c-0.39,0.13-0.74,0.32-1.06,0.56c-0.32,0.24-0.6,0.52-0.83,0.84
		c-0.23,0.32-0.41,0.67-0.54,1.05c-0.13,0.38-0.19,0.77-0.19,1.19c0,0.42,0.07,0.83,0.2,1.21c0.13,0.39,0.31,0.74,0.55,1.07
		c0.24,0.33,0.52,0.61,0.84,0.85c0.32,0.24,0.68,0.43,1.07,0.56c0.39,0.13,0.8,0.2,1.23,0.2c0.36,0,0.71-0.05,1.06-0.15
		c0.35-0.1,0.67-0.25,0.98-0.44c0.31-0.19,0.58-0.43,0.82-0.7c0.24-0.27,0.44-0.58,0.58-0.92H134.11z M123.67,85.05h1.38v-7.44
		h-1.38V85.05z M115.64,78.89h0.26c0.29,0,0.56,0.01,0.82,0.05c0.26,0.03,0.5,0.09,0.72,0.18c0.22,0.09,0.43,0.22,0.62,0.39
		c0.16,0.14,0.3,0.31,0.42,0.5c0.12,0.19,0.21,0.4,0.28,0.63c0.07,0.22,0.1,0.46,0.1,0.7c0,0.2-0.02,0.4-0.07,0.6
		c-0.05,0.2-0.12,0.39-0.21,0.58c-0.09,0.18-0.21,0.35-0.35,0.5c-0.14,0.15-0.3,0.28-0.48,0.38c-0.19,0.1-0.38,0.18-0.56,0.23
		c-0.18,0.05-0.38,0.09-0.58,0.1c-0.2,0.02-0.42,0.03-0.67,0.03h-0.29V78.89z M114.26,85.05h1.72c0.28,0,0.57-0.01,0.86-0.04
		c0.29-0.03,0.58-0.08,0.86-0.15c0.28-0.07,0.53-0.17,0.76-0.29c0.27-0.15,0.52-0.34,0.74-0.57c0.22-0.23,0.41-0.48,0.56-0.77
		c0.16-0.28,0.27-0.58,0.36-0.9c0.08-0.32,0.13-0.65,0.13-0.98c0-0.39-0.06-0.77-0.16-1.13c-0.11-0.36-0.25-0.69-0.43-0.99
		c-0.18-0.3-0.4-0.55-0.63-0.75c-0.11-0.1-0.24-0.19-0.4-0.29c-0.16-0.1-0.36-0.19-0.6-0.28c-0.24-0.09-0.53-0.16-0.87-0.21
		c-0.34-0.05-0.73-0.08-1.19-0.08h-1.69V85.05z M106.73,85.05h4v-1.29h-2.63V82h2.51v-1.29h-2.51v-1.82h2.63v-1.29h-4V85.05z
		 M95.42,85.05h1.38v-5.58h0.02l1.91,5.58h1.17l1.9-5.58h0.03v5.58h1.38v-7.44h-1.91l-1.96,5.63h-0.02l-1.98-5.63h-1.91V85.05z"/>
	<g>
		<path class="st1" d="M89.81,36.84c1.06-0.6,1.5-1.29,1.29-2.06l0,0c-0.27-0.93-0.91-1.48-1.91-1.61
			c-1.14-0.15-1.31-0.41-1.33-0.51l-0.03-0.17l-0.17,0.03c-0.3,0.06-1.02,0.2-6.53,12.43c-1.88,4.18-3.36,6.97-4.39,8.33
			c-1.19-1.44-3.38-5.58-6.51-12.32c-1.33-2.79-2.37-4.28-3.16-4.54l-0.07-0.02l-0.66,0.33c0.01-0.2,0.02-0.4,0.02-0.61
			c0-0.69-0.1-1.42-0.28-2.18l0,0c-0.44-1.63-1.08-2.87-1.9-3.7C63.33,29.42,62,29,60.23,29c-4.49,0-8.84,2.58-12.94,7.67
			c-3.55,4.47-5.8,9.19-6.69,14.03c-0.99,0.02-1.63,0.21-1.95,0.58c-0.09,0.1-0.15,0.22-0.19,0.35h-0.22
			c-3.92,0-8.34-0.62-13.12-1.85c-3.21-0.89-6.45-1.83-9.63-2.79c4.9-4.61,9.29-9.1,13.05-13.34c4.28-4.85,6.21-7.85,5.88-9.15
			l0-0.01c-0.14-0.48-0.55-0.96-1.28-1.49c-0.19-0.12-0.49-0.31-0.94-0.56l-0.12-0.07L32,22.47c-1.73,1.92-4.04,4.79-6.87,8.54
			c-3.89,5.13-7.29,8.81-10.11,10.94c0.29-2.09,0.58-4.21,0.87-6.35c0.31-2.28,0.46-4.6,0.46-6.89c0-1.23-0.06-2.5-0.19-3.77
			c-0.12-1.27-0.34-2.54-0.65-3.78l-0.03-0.13h-0.14c-0.72,0-1.55-0.12-2.46-0.36l-0.29-0.08l0.08,0.29c0.37,1.4,0.55,3.2,0.55,5.33
			c0,3.62-0.47,8.57-1.39,14.72c-0.55,3.81-1.43,8.61-2.59,14.27l-1.31,6.35l1.07,4l0.16-0.02c2.07-0.31,3.58-1.01,4.47-2.05
			c0.89-1.05,1.34-2.85,1.34-5.35v-0.22l-1.57,0.32c-0.17,0-0.43-0.06-0.78-0.18l-0.06-0.01c-0.09,0-0.26-0.03-0.54-0.19
			c0.29-1.17,0.52-2.77,0.67-4.77c0.2-2.61,0.62-2.92,0.78-2.94c4.3,1.23,8.69,2.43,13.05,3.56c4.38,1.14,8.64,1.72,12.66,1.72
			c0.52,0,1-0.07,1.43-0.22c-0.09,0.28-0.16,0.59-0.21,0.95c-0.06,0.45-0.03,0.97,0.1,1.56c0.44,1.64,1.46,3.09,3.03,4.31
			c1.57,1.22,3.51,1.85,5.77,1.85c3.86,0,8.23-1.88,13-5.6c4.21-3.28,6.7-6.19,7.39-8.62l0.06-0.22h-0.23c0,0-0.1,0-0.32-0.3
			c-0.22-0.29-0.49-0.44-0.79-0.44h-0.06l-10.98,8.19c-3.79,2.44-7.03,3.68-9.64,3.68c-0.89,0-1.77-0.3-2.64-0.9
			c-0.86-0.59-1.44-1.46-1.74-2.6c-0.06-0.17-0.08-0.46-0.08-0.87c0-0.54,0.17-0.94,0.53-1.21c3.72-0.02,8.32-2,13.68-5.88
			c4.78-3.47,7.65-6.99,8.56-10.5c0.83,1.58,2.27,4.55,4.29,8.9c2.67,5.73,4.19,8.86,4.65,9.55l-9.53,32.19l-0.03,0.09l1.7,2.2
			l0.11-0.03c1.83-0.5,3.05-1.28,3.63-2.31c0.39-0.65,0.58-1.8,0.58-3.52v-1.3c0-1.29,0.08-2.59,0.23-3.87
			c0.15-1.28,0.45-2.64,0.87-4.05c1.91-6.15,4.74-13.79,8.43-22.71c3.49-8.39,5.98-13.77,7.39-15.99
			C88.67,37.5,89.16,37.2,89.81,36.84z M57.24,43.79c-4.52,4.22-8.65,6.39-12.26,6.44c-0.1-0.42-0.15-0.76-0.15-1.03
			c0-3.16,1.58-6.81,4.69-10.83c3.41-4.39,7.08-6.61,10.9-6.61c1.53,0,2.44,0.71,2.8,2.18l0,0C63.81,36.22,61.8,39.53,57.24,43.79z"
			/>
		<path class="st1" d="M115.5,44.74c0.62-0.32,2.6-0.73,5.87-1.21c1.65-0.23,3.03-0.63,4.12-1.2l0.18-0.1l-1.82-2.39l-0.13,0.05
			c-0.37,0.16-0.92,0.24-1.62,0.24h-1.27l-0.05,0.01c-0.62,0.17-1.33,0.34-2.11,0.5c-0.73,0.16-1.59,0.24-2.58,0.25
			c0.01-1.44,0.18-3.45,0.5-5.97c0.73-5.73,1.1-9.29,1.1-10.59c0-0.17-0.03-0.76-0.08-1.79c-0.06-1.02-0.17-1.85-0.34-2.45
			c-0.18-0.61-0.46-1.15-0.84-1.59c-0.39-0.45-0.95-0.74-1.67-0.86l-0.21-0.03v0.21c0,0.39-0.51,5.85-1.52,16.22
			c-0.38,3.91-0.58,6.51-0.59,7.75c-2.8,0.88-4.95,1.52-6.39,1.91c-4.05,1.19-6.59,1.87-7.55,2c0.05-1.18,0.53-4.66,1.43-10.35
			c0.39-2.48,0.59-4.39,0.59-5.69c0-0.46-0.07-0.98-0.22-1.52c-0.15-0.56-0.43-1.08-0.85-1.56c-0.12-0.12-0.32-0.29-0.61-0.52
			l-0.14-0.11l-0.11,0.14c-0.76,0.94-1.52,4.72-2.32,11.55c-0.91,7.8-1.22,9.92-1.31,10.25l-8.24,3.7c-2.41,1.35-3.49,2.44-3.3,3.33
			c0.23,0.75,0.53,1.34,0.88,1.76c0.39,0.43,0.98,0.65,1.75,0.65c0.96,0,1.76-0.45,2.37-1.35c1.29-1.98,3.3-3.31,5.98-3.93v1.33
			c0,0.35-0.07,1.08-0.21,2.18c-0.14,1.14-0.21,2.04-0.21,2.74c0,0.6,0.15,1.24,0.44,1.89l1.03,2.48h2.27l0.05-0.08
			c0.49-0.73,1.01-1.49,1.57-2.29c1-1.54,1.51-3.6,1.51-6.1v-0.5l-0.31,0.39c-0.45,0.56-0.87,1.15-1.27,1.77
			c-0.29,0.28-0.92,0.43-1.88,0.44v-0.58c0-1.06,0.06-2.27,0.17-3.58c0.13-1.51,0.35-2.07,0.52-2.27l14.01-3.9v6.53
			c0,0.28-0.03,1.47-0.08,3.55c-0.06,2.06-0.17,3.41-0.33,4.02l-0.02,0.06l0.03,0.06c0.27,0.59,0.41,1.08,0.41,1.45
			c0,0.51-0.12,0.9-0.36,1.13c-0.04,0.03-0.15,0.1-0.4,0.24l-0.12,0.06l0.03,0.13c0.23,0.93,0.82,1.87,1.74,2.79
			c0.69,0.69,1.47,1.27,2.33,1.72l0.28,0.15l-0.02-0.32c-0.11-1.77-0.24-3.91-0.38-6.38c-0.14-2.49-0.21-5.23-0.21-8.15
			c0-1.9,0.03-3.52,0.08-4.81C115.15,46.94,115.29,45.78,115.5,44.74z"/>
		<path class="st1" d="M222.79,59.14c-0.07-0.33-0.31-0.64-0.75-0.95c-0.94-0.67-1.22-1.06-1.28-1.25c-0.05-0.21-0.08-0.48-0.08-0.8
			v-2.37c0-0.4-0.03-1.04-0.08-1.91c-0.06-0.88-0.14-1.56-0.26-2.02c-0.57-2.05-1.41-3.67-2.49-4.81c-0.86-0.94-1.73-1.41-2.57-1.41
			c-1,0-2.18,0.64-3.5,1.91c-1.16,1.12-2.3,1.8-3.37,2.02l4.68-29.49l-0.89-2.24l-0.08-0.03c-0.35-0.12-0.74-0.2-1.17-0.26
			c-0.4-0.05-0.71-0.13-0.92-0.24l-0.22-0.11l-7.22,50.14l-0.01,0.06l0.03,0.05c1,1.65,1.83,2.45,2.52,2.45c0.32,0,0.98,0,3.43-9.69
			c1.56-6.2,4.11-9.73,7.57-10.5c0.16,0.26,0.36,0.57,0.62,0.96c0.27,0.4,0.43,0.71,0.48,0.92c0.28,1.06,0.49,2.02,0.63,2.86
			c0.14,0.83,0.21,1.62,0.21,2.34c0,0.61-0.06,1.31-0.17,2.09c-0.11,0.79-0.17,1.34-0.17,1.63c0,0.63,0.1,1.35,0.3,2.12
			c0.21,0.81,0.46,1.32,0.77,1.56c0.21,0.21,0.68,0.31,1.48,0.31c0.45,0,0.94-0.33,1.49-0.99
			C222.63,60.47,222.97,59.69,222.79,59.14z"/>
		<path class="st1" d="M168.74,40.95c-0.77-0.71-1.39-1.06-1.9-1.06h-0.16l-0.02,0.16c-0.5,4.57-2.48,9.56-5.89,14.81
			c-3.85,5.91-5.6,6.81-6.38,6.53c-1.4-0.54-2.33-1.64-2.77-3.28c-0.22-0.6-0.33-1.35-0.33-2.22c0-2.88,1.18-5.94,3.52-9.11
			c2.73-3.68,6.73-6.94,11.86-9.67l0.23-0.12l-0.2-0.17c-0.82-0.7-1.8-1.06-2.91-1.06c-3.2,0-6.57,2.07-10.03,6.15
			c-3,3.54-4.71,7.15-5.11,10.75l-9.69,7.23c-3.45,2.23-6.41,3.35-8.78,3.35c-0.81,0-1.61-0.27-2.39-0.81
			c-0.78-0.54-1.31-1.33-1.58-2.36c-0.03-0.1-0.08-0.33-0.08-0.79c0-0.49,0.16-0.84,0.47-1.09c3.39-0.02,7.59-1.82,12.48-5.36
			c5.38-3.91,8.11-7.88,8.11-11.81c0-0.63-0.09-1.3-0.26-1.99l0,0c-0.4-1.49-0.99-2.63-1.74-3.38c-0.76-0.76-1.97-1.15-3.59-1.15
			c-4.1,0-8.07,2.36-11.81,7c-3.24,4.08-5.29,8.38-6.1,12.79c-0.9,0.02-1.48,0.19-1.78,0.53c-0.18,0.21-0.24,0.46-0.19,0.78
			c0.06,0.32,0.4,0.78,1.06,1.44c0.68,0.68,0.9,1.03,0.95,1.22c-0.11,0.28-0.19,0.62-0.24,1c-0.06,0.41-0.03,0.89,0.09,1.42
			c0.4,1.5,1.33,2.82,2.77,3.94c1.43,1.12,3.21,1.69,5.27,1.69c3.52,0,7.51-1.72,11.86-5.11c2.32-1.81,4.07-3.49,5.23-5.03
			c0.05,0.33,0.12,0.65,0.2,0.96c0.68,2.44,1.6,4.35,2.74,5.69c1.16,1.36,2.34,2.05,3.52,2.05c0.83,0,1.77-0.41,2.81-1.22
			c0.94-0.73,1.85-1.25,2.69-1.54c0.28,0.45,0.68,1.15,1.2,2.09c0.54,0.78,1.19,1.18,1.92,1.18c1.08,0,1.95-0.54,2.6-1.61
			c0.65-1.06,0.91-1.88,0.78-2.52c-0.14-0.41-0.53-0.63-1.2-0.63c0,0-0.01,0-0.01,0l-0.89,0.14c0.06-1.78,0.94-4.53,2.6-8.18
			c0.91-1.98,1.62-5.47,2.13-10.37l0.01-0.08l-0.05-0.06C169.32,41.55,168.97,41.18,168.74,40.95z M127.57,52.92
			c0-2.88,1.44-6.2,4.28-9.87c3.11-3.99,6.45-6.02,9.92-6.02c1.39,0,2.22,0.65,2.53,1.98l0,0c0.54,2.06-1.29,5.08-5.45,8.96
			c-4.12,3.84-7.87,5.82-11.16,5.87C127.62,53.46,127.57,53.15,127.57,52.92z"/>
		<path class="st1" d="M203.21,35.72l-0.8-2.94l-3.29,0c-1.8,0.23-4.23,0.77-7.22,1.61c-0.9,0.26-2.05,0.62-3.51,1.09
			c1.25-5.46,2.17-9.69,2.72-12.56c1.82-8.83,2.71-13.77,2.71-15.09l-0.01-0.06c-0.06-0.19-0.29-0.37-1.52-0.37
			c-0.25,0-0.55-0.04-0.59-0.2l-0.11-0.43l-0.22,0.39c-1.58,2.82-3.18,8.7-4.76,17.48c-0.5,2.92-1.13,7.07-1.85,12.35
			c-0.47,0.29-1.45,0.86-2.97,1.73c-1.6,0.92-2.77,2.14-3.46,3.63l-0.03,0.06l0.64,2.49l0.15-0.01c0.78-0.06,1.49-0.45,2.11-1.16
			c0.5-0.57,1.06-0.88,1.7-0.94c-0.31,1.08-0.59,2.64-0.82,4.65c-0.25,2.16-0.38,4.46-0.38,6.83c0,2.93,0.2,5.78,0.6,8.5l1.13,4.1
			h0.13c1.42,0,2.39-0.58,2.87-1.71c0.28-0.62,0.74-1.91,1.36-3.82l0.02-0.05l-1.43-4.57l-0.19,0.44c-0.17,0.4-0.28,0.64-0.33,0.74
			c-0.25,0.4-0.53,0.59-0.87,0.59c-0.2,0-0.4-0.05-0.6-0.15l-0.06-0.02c0,0-0.03-0.01-0.1-0.07c0-3.95,0.27-7.54,0.8-10.68
			c0.52-3.12,1.24-5.69,2.11-7.63c1.99-0.77,3.5-1.33,4.49-1.66c3.75-1.32,4.84-1.6,5.1-1.6c0.41,0,0.93,0.23,1.54,0.68
			c0.69,0.51,1.26,0.75,1.75,0.75c0.2,0,0.62-0.09,1.83-0.87C202.87,36.63,203.28,36.14,203.21,35.72z"/>
		<path class="st1" d="M178.14,26.41c0.45-1.79,0.93-3.64,1.44-5.49l0.01-0.05l-0.01-0.05c-0.17-0.58-0.43-1.09-0.75-1.5
			c-0.31-0.4-0.85-0.95-1.58-1.63l-0.17-0.15l-0.11,0.2c-1.36,2.48-2.74,7.34-4.12,14.43c-1.38,7.08-2.07,13.64-2.07,19.48
			c0,1.57,0.06,3.04,0.17,4.37c0.11,1.33,0.31,2.51,0.6,3.5c0.28,0.99,0.86,2.29,1.71,3.84c0.89,1.63,1.63,2.42,2.27,2.42
			c0.69,0,1.23-0.37,1.61-1.14c0.11-0.33,0.25-0.7,0.42-1.09l0.02-0.06l-0.02-0.06c-0.18-0.67-0.73-1.2-1.63-1.56
			c-0.8-0.32-1.29-0.89-1.5-1.74c-0.39-1.39-0.6-2.64-0.63-3.72c-0.03-1.09-0.04-2.1-0.04-3c0-3.58,0.54-8.41,1.6-14.34
			C176.08,34.99,177.01,30.72,178.14,26.41z"/>
	</g>
</g>
</svg>
