<svg xmlns="http://www.w3.org/2000/svg" viewBox="0 0 350.61 131.98"><defs><style>.cls-1{fill:#8dc63f;}.cls-1,.cls-2{fill-rule:evenodd;}.cls-2,.cls-3{fill:#17479e;}</style></defs><g id="Layer_2" data-name="Layer 2"><g id="Layer_1-2" data-name="Layer 1"><path class="cls-1" d="M80.81,33.29c0,3.13-1,5.64-3.84,9-6.72,8.24-17.72,21-17.72,21a9.2,9.2,0,0,1-7.17,3.22c-4.56,0-8.68-3.4-8.68-8.14v-15a7,7,0,0,1,6.9-7.16H62.74c0,3.4-2.06,5.55-6,5.55H52.45c-2.33,0-3.68,1.79-3.68,4.12l-.08,11.81a3.64,3.64,0,0,0,1.61,3,3.26,3.26,0,0,0,2.05.63,4.42,4.42,0,0,0,3.23-1.79c1.6-2,10.64-12.79,17.27-20.67a8.82,8.82,0,0,0,2.32-5.55,8.85,8.85,0,0,0-2.32-5.64C66.22,19.78,57.18,9,55.58,7.07c-1-1.08-2-1.88-3.23-1.88a3.93,3.93,0,0,0-2.05.63,3.82,3.82,0,0,0-1.61,3l.08,11.72c0,2.42,1.35,4.12,3.68,4.12.17.09,4.11,0,4.29,0,3.94,0,6,2.23,6,5.64H59.6l-9.3-.1a7,7,0,0,1-6.9-7.15V8.14C43.4,3.49,47.52,0,52.08,0a9.5,9.5,0,0,1,7.17,3.22S70.25,16,77,24.25c2.86,3.4,3.84,5.82,3.84,9"/><path class="cls-1" d="M0,33.29c0,3.13,1.07,5.64,3.85,9,6.71,8.24,17.72,21,17.72,21a9.3,9.3,0,0,0,7.15,3.22c4.57,0,8.77-3.4,8.77-8.14v-15a7,7,0,0,0-7-7.16H18.08c0,3.4,2.15,5.55,6.09,5.55h4.2c2.32,0,3.76,1.79,3.76,4.12V57.72a3.44,3.44,0,0,1-1.61,3,3.31,3.31,0,0,1-2.06.63,4.08,4.08,0,0,1-3.13-1.79c-1.71-2-10.74-12.79-17.28-20.67a8.46,8.46,0,0,1-2.41-5.55,8.5,8.5,0,0,1,2.41-5.64C14.59,19.78,23.62,9,25.33,7.07a4.2,4.2,0,0,1,3.13-1.88,4,4,0,0,1,2.06.63,3.61,3.61,0,0,1,1.61,3V20.58c0,2.42-1.44,4.12-3.76,4.12-.09.09-4,0-4.2,0-3.94,0-6.09,2.23-6.09,5.64h3.13l9.31-.1a7,7,0,0,0,7-7.15V8.14c0-4.65-4.2-8.14-8.77-8.14a9.62,9.62,0,0,0-7.15,3.22s-11,12.79-17.72,21C1.07,27.65,0,30.07,0,33.29"/><path class="cls-2" d="M152.67,84.48H144a11,11,0,0,0,3.23,7.71,10.74,10.74,0,0,0,5.47,2.74v6.38a15.7,15.7,0,0,1-7.79-2.24,16.94,16.94,0,0,1-5.56-6.3,18.75,18.75,0,0,1-2.07-9.12c0-5.14,1.41-9.37,4.39-12.61a14.6,14.6,0,0,1,11-4.89V72a8,8,0,0,0-5.56,2.15,10.53,10.53,0,0,0-3,6.23h8.54Zm0,10.45c.75.07,1.49.16,2.32.16A20.35,20.35,0,0,0,167.27,91V97.5a22.23,22.23,0,0,1-6.15,3,26,26,0,0,1-7.12.91,6.94,6.94,0,0,1-1.33-.08Zm15.17-10.45H152.67V80.42h8.54a9.69,9.69,0,0,0-2.4-6.23A7.46,7.46,0,0,0,153.08,72h-.41V66.15h.41a13.56,13.56,0,0,1,10.78,4.73q4,4.73,4,12.68Z"/><path class="cls-2" d="M215,66.82h6.72V100.9H215Zm3.32-14.27a3.74,3.74,0,0,1,2.82,1.08,3.84,3.84,0,0,1,1.24,2.82,3.7,3.7,0,0,1-1.24,2.82,3.59,3.59,0,0,1-2.82,1.24,3.8,3.8,0,0,1-2.74-1.24,3.94,3.94,0,0,1,2.74-6.72"/><path class="cls-2" d="M281.36,84.48h-8.7a11,11,0,0,0,3.23,7.71,11.15,11.15,0,0,0,5.47,2.74v6.38a15.7,15.7,0,0,1-7.79-2.24,17,17,0,0,1-5.56-6.3,18.86,18.86,0,0,1-2.07-9.12c0-5.14,1.49-9.37,4.4-12.61a14.7,14.7,0,0,1,11-4.89V72a8.16,8.16,0,0,0-5.55,2.15,11.63,11.63,0,0,0-3,6.23h8.54Zm0,10.45c.75.07,1.58.16,2.41.16A20.7,20.7,0,0,0,296,91V97.5a21.55,21.55,0,0,1-6.22,3,25.69,25.69,0,0,1-7.13.91,7.43,7.43,0,0,1-1.33-.08Zm15.26-10.45H281.36V80.42H290a10.14,10.14,0,0,0-2.41-6.23,7.75,7.75,0,0,0-5.8-2.15h-.42V66.15h.42a13.43,13.43,0,0,1,10.78,4.73c2.73,3.15,4.06,7.38,4.06,12.68Z"/><path class="cls-2" d="M189.29,100.81a15.28,15.28,0,0,1-11-4.72c-3-3.15-4.48-7.47-4.48-12.77A16.91,16.91,0,0,1,178.51,71a15.56,15.56,0,0,1,10.78-4.81v6a9.74,9.74,0,0,0-5.72,3.07,13,13,0,0,0-3,9c0,3.49.83,6.14,2.57,8a8.37,8.37,0,0,0,3.32,2.32,14.9,14.9,0,0,0,2.82.5Zm15.26-51.57.08,51.65H190.28c-.33,0-.66-.08-1-.08V95c.91.08,2.07.08,3.4.08h5.14V73.53a13.12,13.12,0,0,0-6.3-1.58,19.43,19.43,0,0,0-2.24.17v-6a6.51,6.51,0,0,1,1.24-.08,20.36,20.36,0,0,1,7.3,1.49V55.87s-.33-6.72,6.72-6.72Z"/><path class="cls-2" d="M231.57,57.11l.09-7.79c7-.08,6.63,6.63,6.63,6.63V71.29a13.1,13.1,0,0,1,10.45-5.14,11,11,0,0,1,6.13,1.74,9.64,9.64,0,0,1,4,4.64c.91,2,1.32,5,1.32,9v19.4h-6.72v-21a9.53,9.53,0,0,0-1.82-6,5.79,5.79,0,0,0-4.81-2.32,7.77,7.77,0,0,0-4.23,1.16,16.93,16.93,0,0,0-4.31,3.82v24.37h-6.72V57.11Z"/><path class="cls-2" d="M319.77,118.48l-.09-51.66h11.78a28.28,28.28,0,0,1,3.73.24v6.31a26.62,26.62,0,0,0-3.9-.25h-4.73v21A14.82,14.82,0,0,0,333,95.67a18.25,18.25,0,0,0,2.16-.16v5.88a7.91,7.91,0,0,1-1.41.09,21.23,21.23,0,0,1-7.39-1.5v11.78c0,.08.34,6.72-6.62,6.72m15.42-51.42a18.12,18.12,0,0,1,10.36,4.32c3.41,3,5.06,7.21,5.06,12.6,0,5.06-1.57,9.29-4.81,12.52a15.35,15.35,0,0,1-10.61,4.89V95.51a10,10,0,0,0,5.56-3.15,11.82,11.82,0,0,0,3.06-8.46A11.26,11.26,0,0,0,342.32,78a8.35,8.35,0,0,0-3.82-3.73,10.86,10.86,0,0,0-3.31-.91Z"/><path class="cls-2" d="M304.05,49.15l.17.17c6.88.08,6.63,6.63,6.63,6.63v45h-6.8V49.15Z"/><path class="cls-2" d="M109.17,76.11V100.9h-6.8v-19q0-5.73-1.49-8c-1-1.5-2.82-2.25-5.31-2.25a7.83,7.83,0,0,0-3.9,1,16.41,16.41,0,0,0-4.06,3.41V100.9H80.89V66.73h6.72v4.48c3.48-3.4,6.8-5.14,10.11-5.14,4.32,0,7.71,2.07,10,6.14,3.64-4.15,7.37-6.23,11.36-6.23a10.28,10.28,0,0,1,8.12,3.66c2.16,2.4,3.24,6.14,3.24,11.11V100.9h-6.72V80.66c0-2.9-.58-5.06-1.74-6.55A6,6,0,0,0,117,71.88c-2.74,0-5.39,1.4-7.79,4.23"/><path class="cls-3" d="M123.75,131.5V118.88a.29.29,0,0,1,.32-.33h2a.41.41,0,0,1,.38.21l2.75,4.44a.08.08,0,0,0,.15,0l2.79-4.44a.39.39,0,0,1,.37-.21h2a.29.29,0,0,1,.31.33V131.5a.28.28,0,0,1-.31.32h-2a.29.29,0,0,1-.32-.32v-8.21c0-.11-.07-.13-.13,0l-1.92,3.12a.4.4,0,0,1-.37.21h-1a.4.4,0,0,1-.38-.21l-1.89-3.12c-.06-.1-.14-.08-.14,0v8.21a.29.29,0,0,1-.32.32h-2a.29.29,0,0,1-.32-.32"/><path class="cls-3" d="M144.39,128.85c.15-.17.31-.19.46,0l1.08,1a.32.32,0,0,1,0,.46,4.75,4.75,0,0,1-3.74,1.66,4.26,4.26,0,0,1-4.43-3.33,6.68,6.68,0,0,1-.23-1.76,6.85,6.85,0,0,1,.21-1.86,4.22,4.22,0,0,1,4.24-3.11c2.56,0,3.95,1.63,4.37,4.19.05.41.09.89.11,1.38a.29.29,0,0,1-.33.32h-5.81a.11.11,0,0,0-.12.12,4,4,0,0,0,.13.58,2,2,0,0,0,2.11,1.22,2.51,2.51,0,0,0,1.91-.87m-4-3.51a2.33,2.33,0,0,0-.11.47c0,.08,0,.12.1.12h3.21c.08,0,.12,0,.1-.12a3.27,3.27,0,0,0-.07-.4,1.62,1.62,0,0,0-1.66-1.19,1.53,1.53,0,0,0-1.57,1.12"/><path class="cls-3" d="M155.09,118.56h2a.29.29,0,0,1,.33.31V131.5a.29.29,0,0,1-.33.32h-2a.29.29,0,0,1-.33-.32V131c0-.09-.07-.12-.13,0a2.54,2.54,0,0,1-2.16,1,3.82,3.82,0,0,1-3.66-2.79,8.06,8.06,0,0,1,0-4.63,3.74,3.74,0,0,1,3.62-2.65,2.59,2.59,0,0,1,2.16.93c.06.07.13,0,.13-.06v-3.91a.29.29,0,0,1,.33-.31m-.34,8.39a4.11,4.11,0,0,0-.4-2,1.44,1.44,0,0,0-1.27-.74,1.49,1.49,0,0,0-1.33.72,3.86,3.86,0,0,0-.45,2,4,4,0,0,0,.4,1.86,1.5,1.5,0,0,0,1.38.81,1.41,1.41,0,0,0,1.28-.81,4,4,0,0,0,.39-1.88"/><path class="cls-3" d="M160.06,119.56a1.63,1.63,0,1,1,1.63,1.59,1.54,1.54,0,0,1-1.63-1.59m.3,11.94v-9.1a.29.29,0,0,1,.32-.32h2a.29.29,0,0,1,.32.32v9.1a.29.29,0,0,1-.32.32h-2a.29.29,0,0,1-.32-.32"/><path class="cls-3" d="M166,129.13a7.13,7.13,0,0,1-.32-2.24,6.7,6.7,0,0,1,.32-2.2,4.61,4.61,0,0,1,8.4-.09,2.42,2.42,0,0,1,.15.59.31.31,0,0,1-.28.34l-2,.3c-.2,0-.35,0-.36-.21l-.06-.26a1.65,1.65,0,0,0-1.67-1.14,1.6,1.6,0,0,0-1.61,1.14,4.77,4.77,0,0,0-.21,1.55,5.33,5.33,0,0,0,.19,1.56,1.63,1.63,0,0,0,1.63,1.21,1.66,1.66,0,0,0,1.65-1.16.27.27,0,0,0,0-.09c0-.08.17-.31.37-.26l2,.3a.29.29,0,0,1,.26.36,1.84,1.84,0,0,1-.09.43,4.17,4.17,0,0,1-4.19,2.71,4.28,4.28,0,0,1-4.21-2.84"/><path class="cls-3" d="M185,125.17v6.33a.29.29,0,0,1-.33.32h-2a.29.29,0,0,1-.33-.32v-.45c0-.1,0-.12-.13,0a3.37,3.37,0,0,1-2.6,1c-1.85,0-3.24-.89-3.24-2.84s1.39-3.07,4-3.07h1.91a.11.11,0,0,0,.11-.12v-.39c0-.82-.51-1.33-1.52-1.33-.75,0-1.26.26-1.44.72a.33.33,0,0,1-.38.25l-2.1-.27c-.19,0-.32-.11-.3-.26.19-1.57,1.88-2.73,4.17-2.73,2.5,0,4.25,1.4,4.25,3.24m-2.68,3.26v-.67a.11.11,0,0,0-.11-.11h-1.35c-1.14,0-1.84.44-1.84,1.24s.55,1.09,1.35,1.09a1.74,1.74,0,0,0,1.95-1.55"/><path class="cls-3" d="M187.62,131.5V118.88a.3.3,0,0,1,.33-.33h2a.3.3,0,0,1,.33.33V131.5a.29.29,0,0,1-.33.32h-2a.29.29,0,0,1-.33-.32"/><path class="cls-3" d="M205.94,131.56l-.54-1.77a.09.09,0,0,0-.11-.09h-4.65a.1.1,0,0,0-.11.09l-.53,1.77a.35.35,0,0,1-.36.26h-2.2c-.23,0-.34-.15-.26-.36l4-12.64a.34.34,0,0,1,.35-.27h2.79a.36.36,0,0,1,.36.27l4,12.64c.08.21,0,.36-.27.36h-2.2a.33.33,0,0,1-.35-.26m-4.65-3.93h3.36c.07,0,.11,0,.09-.13L203,121.72c0-.1-.11-.1-.15,0l-1.68,5.78c0,.09,0,.13.09.13"/><path class="cls-3" d="M210.9,119.56a1.63,1.63,0,0,1,3.26,0,1.63,1.63,0,0,1-3.26,0m.31,11.94v-9.1a.29.29,0,0,1,.32-.32h2a.29.29,0,0,1,.32.32v9.1a.29.29,0,0,1-.32.32h-2a.29.29,0,0,1-.32-.32"/><path class="cls-3" d="M222.94,118.56h2a.28.28,0,0,1,.32.31V131.5a.29.29,0,0,1-.32.32h-2a.29.29,0,0,1-.32-.32V131c0-.09-.08-.12-.14,0a2.52,2.52,0,0,1-2.16,1,3.8,3.8,0,0,1-3.65-2.79,6.81,6.81,0,0,1-.33-2.28,6.62,6.62,0,0,1,.37-2.35,3.74,3.74,0,0,1,3.61-2.65,2.59,2.59,0,0,1,2.16.93c.06.07.14,0,.14-.06v-3.91a.28.28,0,0,1,.32-.31M222.6,127a4,4,0,0,0-.4-2,1.43,1.43,0,0,0-1.27-.74,1.48,1.48,0,0,0-1.32.72,3.85,3.85,0,0,0-.46,2,4,4,0,0,0,.4,1.86,1.51,1.51,0,0,0,1.38.81,1.44,1.44,0,0,0,1.29-.81,4,4,0,0,0,.38-1.88"/><path class="cls-3" d="M232.44,119.56a1.63,1.63,0,1,1,1.63,1.59,1.54,1.54,0,0,1-1.63-1.59m.3,11.94v-9.1a.29.29,0,0,1,.33-.32h2a.29.29,0,0,1,.33.32v9.1a.29.29,0,0,1-.33.32h-2a.29.29,0,0,1-.33-.32"/><path class="cls-3" d="M246.71,125.38v6.12a.29.29,0,0,1-.32.32h-2a.29.29,0,0,1-.32-.32v-5.57a1.54,1.54,0,0,0-1.53-1.71,1.57,1.57,0,0,0-1.58,1.71v5.57a.29.29,0,0,1-.32.32h-2a.29.29,0,0,1-.32-.32v-9.1a.29.29,0,0,1,.32-.32h2a.29.29,0,0,1,.32.32v.53c0,.1.06.14.12.06a2.65,2.65,0,0,1,2.29-1.06,3.19,3.19,0,0,1,3.37,3.45"/><path class="cls-3" d="M262.16,131.56l-.52-1.75a.1.1,0,0,0-.11-.09h-4.6a.09.09,0,0,0-.11.09l-.53,1.75a.35.35,0,0,1-.36.26h-2.17c-.22,0-.34-.15-.27-.35l4-12.52a.35.35,0,0,1,.36-.26h2.76a.34.34,0,0,1,.35.26l4,12.52a.25.25,0,0,1-.26.35h-2.18a.35.35,0,0,1-.36-.26m-4.59-3.88h3.32c.07,0,.11,0,.09-.14l-1.68-5.72c-.05-.09-.12-.09-.16,0l-1.66,5.72c0,.1,0,.14.09.14"/><path class="cls-3" d="M267.08,129.16a6.75,6.75,0,0,1-.32-2.21,6.52,6.52,0,0,1,.32-2.18,4.55,4.55,0,0,1,8.31-.09,2.36,2.36,0,0,1,.15.58.3.3,0,0,1-.28.33l-2,.3c-.19,0-.34,0-.36-.2l-.06-.26a1.62,1.62,0,0,0-1.64-1.13,1.58,1.58,0,0,0-1.6,1.13,4.63,4.63,0,0,0-.21,1.53,5.12,5.12,0,0,0,.19,1.54,1.6,1.6,0,0,0,1.62,1.2,1.66,1.66,0,0,0,1.63-1.14.67.67,0,0,0,0-.1c0-.07.18-.3.38-.26l2,.3a.29.29,0,0,1,.26.36,2.55,2.55,0,0,1-.09.43,4.13,4.13,0,0,1-4.15,2.68,4.21,4.21,0,0,1-4.16-2.81"/><path class="cls-3" d="M283,124.3h-1.69c-.07,0-.11,0-.11.12v3.88c0,.8.32,1.19,1.07,1.19h.52a.3.3,0,0,1,.33.33v1.61a.32.32,0,0,1-.33.33c-.35,0-.69,0-1,0-1.92,0-3.1-.45-3.12-2.47v-4.91c0-.08,0-.12-.11-.12h-1a.29.29,0,0,1-.32-.32V122.5a.29.29,0,0,1,.32-.32h1a.1.1,0,0,0,.11-.11V120a.29.29,0,0,1,.32-.32h1.91a.29.29,0,0,1,.32.32v2.12a.1.1,0,0,0,.11.11H283a.29.29,0,0,1,.32.32V124a.29.29,0,0,1-.32.32"/><path class="cls-3" d="M285.54,119.69a1.62,1.62,0,1,1,1.61,1.57,1.52,1.52,0,0,1-1.61-1.57m.3,11.81v-9a.29.29,0,0,1,.32-.32h2a.28.28,0,0,1,.31.32v9a.28.28,0,0,1-.31.32h-2a.29.29,0,0,1-.32-.32"/><path class="cls-3" d="M291.33,128.9a6.86,6.86,0,0,1-.26-1.92,6.51,6.51,0,0,1,.28-2,4.18,4.18,0,0,1,4.26-3,4.12,4.12,0,0,1,4.16,2.94,6.56,6.56,0,0,1,.29,2,7.59,7.59,0,0,1-.25,1.9,4.45,4.45,0,0,1-8.48.06m5.91-.6a4.56,4.56,0,0,0,.15-1.32,5.54,5.54,0,0,0-.15-1.33,1.71,1.71,0,0,0-3.35,0,5.93,5.93,0,0,0,0,2.65,1.7,1.7,0,0,0,3.35,0"/><path class="cls-3" d="M310.88,125.44v6.06a.29.29,0,0,1-.32.32h-2a.29.29,0,0,1-.32-.32V126a1.52,1.52,0,0,0-1.51-1.69,1.55,1.55,0,0,0-1.56,1.69v5.51a.29.29,0,0,1-.32.32h-2a.29.29,0,0,1-.32-.32v-9a.29.29,0,0,1,.32-.32h2a.29.29,0,0,1,.32.32V123c0,.1.06.14.11.06a2.62,2.62,0,0,1,2.27-1,3.16,3.16,0,0,1,3.34,3.41"/></g></g></svg>