<?xml version="1.0" standalone="no"?>
<!DOCTYPE svg PUBLIC "-//W3C//DTD SVG 20010904//EN"
 "http://www.w3.org/TR/2001/REC-SVG-20010904/DTD/svg10.dtd">
<svg version="1.0" xmlns="http://www.w3.org/2000/svg"
 width="2962.000000pt" height="809.000000pt" viewBox="0 0 2962.000000 809.000000"
 preserveAspectRatio="xMidYMid meet">

<g transform="translate(0.000000,809.000000) scale(0.100000,-0.100000)"
fill="#000000" stroke="none">
<path d="M4270 6849 c-464 -57 -869 -234 -1218 -534 -404 -347 -665 -826 -749
-1375 -24 -157 -23 -462 1 -620 35 -231 140 -571 178 -578 25 -5 83 25 119 62
63 62 50 4 249 1143 44 254 89 491 100 527 51 162 162 249 370 287 110 20 388
15 505 -9 98 -21 245 -82 245 -103 0 -5 -16 -56 -36 -112 -30 -86 -55 -220
-164 -872 -72 -423 -137 -797 -145 -830 -49 -188 -135 -276 -323 -327 -68 -19
-106 -21 -312 -22 -255 -1 -325 9 -471 69 -34 14 -64 24 -66 22 -6 -6 121
-203 191 -297 87 -117 293 -326 401 -407 329 -247 659 -389 1045 -449 159 -25
482 -25 640 -1 904 139 1622 788 1845 1667 50 197 59 279 60 540 0 268 -10
360 -65 567 -27 104 -95 300 -109 315 -22 24 -152 -68 -186 -132 -7 -14 -70
-356 -140 -760 -69 -404 -133 -762 -141 -794 -35 -137 -103 -228 -208 -277
-108 -51 -189 -64 -406 -64 -247 0 -372 23 -486 90 l-43 25 24 58 c39 96 49
148 190 962 74 431 140 803 146 825 60 224 208 313 554 331 219 11 431 -21
565 -85 l58 -27 -23 45 c-35 70 -154 247 -224 333 -338 420 -839 707 -1381
793 -123 19 -478 28 -590 14z m739 -1099 c104 -22 186 -52 224 -82 l27 -23
-36 -95 c-31 -83 -51 -184 -170 -892 -81 -484 -144 -828 -159 -875 -74 -229
-253 -312 -650 -300 -183 6 -290 25 -388 69 -90 41 -93 46 -68 105 37 89 50
155 190 963 77 443 150 833 161 867 61 177 189 259 447 283 119 11 317 2 422
-20z"/>
<path d="M7900 4640 l0 -2220 50 0 50 0 0 2220 0 2220 -50 0 -50 0 0 -2220z"/>
<path d="M9491 5488 c-5 -13 -32 -183 -60 -378 -98 -670 -205 -1347 -227
-1435 -5 -20 -1 -21 209 -20 l215 0 6 50 c3 28 6 77 6 110 0 99 42 709 49 718
4 4 52 -68 106 -160 221 -375 339 -582 381 -666 25 -48 49 -87 54 -85 5 2 49
73 98 158 49 85 169 285 266 445 98 159 183 300 189 312 16 35 27 27 27 -19 0
-24 11 -167 25 -318 14 -151 28 -336 31 -410 l7 -136 251 1 252 0 -18 80 c-37
170 -143 896 -213 1460 -34 276 -42 317 -63 313 -17 -3 -222 -302 -579 -845
-109 -166 -201 -301 -205 -300 -4 1 -152 218 -329 482 -389 581 -447 665 -460
665 -5 0 -13 -10 -18 -22z"/>
<path d="M16610 5496 c-225 -48 -385 -186 -444 -385 -20 -69 -21 -218 -1 -294
44 -169 142 -277 403 -442 203 -128 252 -184 252 -285 0 -84 -43 -141 -124
-165 -154 -46 -356 24 -528 183 l-58 54 0 -109 c0 -60 -5 -158 -11 -218 -13
-128 -17 -122 104 -160 259 -82 558 -72 757 26 201 99 324 309 306 526 -11
133 -54 220 -162 325 -76 73 -120 106 -284 213 -74 48 -148 99 -165 113 -102
85 -122 201 -48 283 106 117 378 78 544 -78 l46 -43 6 173 c4 94 10 190 13
213 l6 40 -133 18 c-177 24 -394 30 -479 12z"/>
<path d="M12025 5420 c35 -289 35 -1525 0 -1736 l-5 -31 227 1 c126 1 370 -3
543 -8 350 -9 370 -7 370 43 0 33 35 209 51 259 6 18 9 35 7 37 -2 2 -35 -5
-73 -16 -161 -45 -589 -49 -632 -6 -15 15 -17 47 -17 264 l-1 248 175 -3 c196
-3 294 -14 355 -41 l42 -19 7 142 c3 77 9 161 13 185 6 43 6 44 -18 36 -13 -4
-149 -10 -302 -12 l-277 -5 2 213 3 214 155 -3 c222 -4 356 -21 441 -56 14 -6
17 9 23 116 4 68 10 148 14 178 l8 55 -559 0 -559 0 7 -55z"/>
<path d="M13775 5460 c2 -8 10 -64 17 -125 14 -126 18 -1263 5 -1525 l-8 -155
100 3 c55 2 155 -1 223 -8 520 -48 813 -8 1046 143 153 99 287 259 351 419 59
146 66 187 65 378 0 161 -2 182 -27 263 -98 317 -325 513 -682 587 -148 31
-330 41 -722 38 -326 -3 -372 -5 -368 -18z m864 -261 c225 -57 382 -215 448
-449 14 -52 18 -101 18 -245 -1 -167 -3 -186 -27 -257 -59 -178 -184 -295
-358 -339 -76 -19 -269 -17 -343 3 -80 22 -105 41 -114 85 -9 44 -11 1198 -2
1207 14 14 130 24 213 19 50 -2 124 -13 165 -24z"/>
<path d="M17864 5425 c30 -259 42 -816 27 -1295 -6 -190 -14 -375 -17 -411
l-7 -65 248 0 247 1 -5 35 c-9 62 -30 758 -24 774 6 14 48 16 388 16 l382 0
-6 -347 c-4 -192 -10 -378 -13 -414 l-7 -66 248 1 247 1 -6 50 c-33 275 -33
1449 0 1720 l6 50 -247 0 -247 0 6 -55 c3 -30 9 -182 12 -337 l7 -283 -388 0
-388 0 7 213 c3 116 9 268 12 337 l6 125 -247 0 -247 0 6 -50z"/>
<path d="M20539 5473 l-206 -3 9 -53 c14 -90 28 -479 28 -822 0 -329 -15 -852
-26 -911 l-6 -31 249 1 249 1 -10 60 c-12 71 -15 1510 -3 1663 l7 102 -42 -2
c-24 -2 -136 -4 -249 -5z"/>
<path d="M21605 5450 c20 -92 27 -248 32 -720 5 -488 -3 -855 -23 -1026 l-6
-51 228 1 c126 1 365 -3 530 -8 166 -5 318 -6 337 -2 35 7 35 7 47 79 6 40 22
116 34 170 l23 97 -21 -6 c-133 -43 -363 -62 -550 -47 -70 6 -133 16 -139 22
-8 8 -13 91 -15 268 l-4 256 184 -7 c208 -8 295 -19 354 -45 l41 -19 6 162 c4
88 10 172 13 185 7 22 5 23 -17 16 -13 -4 -149 -10 -301 -12 l-278 -5 0 217 0
217 168 -6 c184 -8 334 -27 401 -50 24 -9 45 -16 46 -16 1 0 5 62 8 138 4 75
10 155 13 177 l6 40 -561 0 -561 0 5 -25z"/>
<path d="M23364 5435 c40 -279 46 -1339 10 -1717 l-7 -68 66 7 c36 3 274 1
529 -6 255 -6 478 -8 497 -4 l34 8 43 165 c23 91 41 166 40 168 -2 1 -38 -7
-82 -19 -163 -42 -590 -50 -637 -11 -30 25 -29 1148 1 1447 l7 70 -253 0 -253
0 5 -40z"/>
<path d="M25075 5430 c31 -243 44 -925 25 -1405 -6 -176 -13 -330 -14 -342 -1
-22 1 -22 159 -26 88 -3 232 -10 320 -17 453 -35 738 27 970 214 163 130 269
300 322 512 26 106 23 332 -5 449 -73 297 -295 519 -602 604 -178 50 -256 55
-733 56 l-448 0 6 -45z m862 -230 c170 -44 315 -157 385 -300 65 -132 82 -213
82 -385 0 -161 -13 -238 -57 -336 -54 -122 -167 -220 -301 -261 -152 -47 -441
-20 -478 45 -16 27 -25 1224 -10 1239 31 31 253 30 379 -2z"/>
<path d="M17037 2753 c-4 -3 -7 -109 -7 -235 l0 -230 -25 30 c-39 47 -115 90
-189 109 -128 31 -271 -13 -365 -112 -85 -90 -121 -189 -121 -335 1 -99 11
-153 46 -226 71 -150 243 -249 400 -229 72 9 163 56 213 110 l41 45 0 -70 0
-70 100 0 100 0 0 610 0 610 -93 0 c-52 0 -97 -3 -100 -7z m-163 -507 c98 -41
160 -143 160 -266 0 -164 -105 -280 -255 -280 -151 0 -258 131 -247 304 8 117
69 209 160 243 46 16 142 16 182 -1z"/>
<path d="M19830 2150 l0 -610 100 0 100 0 -2 608 -3 607 -97 3 -98 3 0 -611z"/>
<path d="M22497 2754 c-4 -4 -7 -279 -7 -611 l0 -603 105 0 105 0 0 280 c0
305 3 326 58 383 40 42 120 62 183 47 61 -15 113 -63 128 -117 7 -22 11 -153
11 -315 l0 -278 100 0 101 0 -3 338 c-3 327 -4 338 -26 387 -52 112 -144 169
-277 169 -99 1 -162 -24 -226 -90 l-44 -45 -5 228 -5 228 -95 3 c-53 1 -99 0
-103 -4z"/>
<path d="M17470 2655 l0 -95 110 0 111 0 -3 93 -3 92 -107 3 -108 3 0 -96z"/>
<path d="M14210 2427 c-62 -18 -113 -50 -154 -100 l-36 -42 0 68 0 67 -100 0
-100 0 0 -440 0 -440 99 0 100 0 3 283 c3 272 4 284 26 329 27 55 59 81 119
97 81 22 159 -12 197 -85 20 -36 21 -58 24 -331 l3 -293 100 0 99 0 0 268 c0
283 5 325 46 380 35 45 79 65 145 65 71 0 121 -28 152 -87 21 -39 22 -54 25
-333 l3 -293 100 0 100 0 -3 333 c-5 374 -7 389 -78 470 -57 65 -124 91 -230
91 -103 1 -172 -27 -248 -98 l-48 -45 -41 48 c-23 27 -63 58 -88 70 -58 27
-155 35 -215 18z"/>
<path d="M15661 2425 c-155 -44 -274 -169 -310 -326 -17 -74 -13 -200 9 -271
80 -259 376 -381 633 -260 68 31 150 97 145 116 -2 6 -26 33 -55 60 l-52 48
-42 -35 c-53 -46 -116 -67 -198 -67 -114 0 -194 52 -236 153 -30 72 -50 67
304 67 369 0 339 -10 326 108 -21 198 -122 344 -275 397 -66 23 -184 28 -249
10z m195 -171 c62 -29 112 -102 127 -181 l7 -33 -225 0 -225 0 0 23 c0 60 68
155 135 190 40 21 137 22 181 1z"/>
<path d="M18241 2429 c-65 -13 -162 -61 -211 -105 -106 -96 -155 -220 -148
-377 3 -85 8 -103 41 -169 79 -160 233 -257 410 -258 119 0 254 56 329 137
l28 29 -59 58 -59 59 -40 -32 c-137 -108 -315 -93 -399 33 -39 58 -53 103 -53
176 0 164 106 280 254 280 69 0 124 -21 187 -72 l41 -33 59 65 c33 35 59 68
59 72 0 10 -96 81 -138 103 -75 37 -207 53 -301 34z"/>
<path d="M21870 2426 c-133 -28 -247 -119 -307 -245 -34 -70 -38 -84 -41 -181
-4 -116 14 -192 64 -272 147 -232 493 -277 695 -90 l50 47 -60 59 -59 59 -40
-32 c-63 -50 -119 -71 -190 -71 -109 0 -183 45 -231 141 -27 53 -31 73 -31
139 0 166 105 280 257 280 66 0 143 -31 182 -74 14 -14 30 -26 37 -26 6 0 37
29 68 65 l57 65 -38 34 c-104 96 -263 135 -413 102z"/>
<path d="M23800 2430 c-112 -24 -232 -116 -284 -218 -123 -243 -36 -538 190
-644 175 -82 377 -55 515 69 l51 47 -58 51 -58 52 -63 -43 c-72 -49 -105 -58
-202 -52 -54 3 -78 10 -116 33 -48 30 -96 98 -110 158 l-7 27 327 0 328 0 -6
88 c-14 209 -105 353 -263 411 -65 25 -179 34 -244 21z m206 -191 c43 -29 88
-102 99 -161 l7 -38 -226 0 c-251 0 -237 -5 -211 71 19 56 66 113 113 139 55
30 165 24 218 -11z"/>
<path d="M24880 2427 c-54 -15 -130 -66 -154 -101 -26 -40 -36 -31 -36 34 l0
60 -100 0 -100 0 0 -440 0 -440 99 0 99 0 4 278 c3 239 6 283 22 319 60 141
246 160 321 32 19 -32 20 -55 23 -331 l3 -298 99 0 99 0 3 283 c3 263 4 285
24 328 36 77 121 119 205 100 55 -12 88 -37 113 -87 20 -36 21 -58 24 -331 l3
-293 100 0 100 0 -3 338 -3 337 -27 55 c-15 30 -33 62 -40 70 -56 66 -171 107
-273 96 -75 -8 -167 -52 -219 -105 l-39 -40 -48 54 c-28 30 -67 60 -91 69 -55
23 -153 29 -208 13z"/>
<path d="M26352 2430 c-198 -42 -342 -230 -342 -447 0 -84 17 -156 52 -227
127 -253 496 -315 709 -118 l50 47 -59 52 -60 52 -38 -31 c-65 -51 -111 -68
-195 -68 -123 0 -207 55 -244 161 -8 23 -15 45 -15 50 0 5 147 9 326 9 l327 0
-6 88 c-13 205 -108 354 -263 411 -64 25 -179 34 -242 21z m165 -171 c46 -17
102 -79 123 -136 33 -89 49 -83 -205 -83 -250 0 -236 -5 -210 71 20 57 66 114
113 139 42 22 133 26 179 9z"/>
<path d="M19070 2424 c-42 -8 -124 -33 -163 -49 l-36 -15 24 -70 c13 -38 26
-74 29 -79 3 -5 40 2 81 15 150 47 304 27 358 -47 18 -25 42 -117 33 -126 -2
-2 -32 3 -67 12 -48 13 -96 16 -189 13 -109 -3 -132 -7 -180 -29 -111 -52
-160 -127 -160 -249 0 -173 114 -273 310 -273 101 0 175 24 238 79 l42 36 0
-51 0 -51 100 0 100 0 0 295 c0 169 -4 315 -11 343 -22 107 -107 201 -207 233
-38 12 -257 21 -302 13z m298 -504 c29 -11 32 -16 32 -51 0 -54 -20 -99 -63
-136 -46 -40 -98 -57 -172 -57 -108 1 -167 47 -167 129 0 54 22 88 75 115 37
19 54 21 152 17 61 -3 125 -10 143 -17z"/>
<path d="M20891 2408 c-113 -43 -182 -155 -167 -271 9 -63 26 -96 71 -135 49
-43 71 -54 219 -102 145 -48 176 -69 176 -124 0 -44 -43 -82 -103 -91 -74 -11
-207 29 -290 87 -16 11 -29 19 -31 17 -13 -16 -86 -129 -86 -133 0 -2 26 -21
58 -41 169 -106 413 -117 540 -25 75 54 117 177 92 268 -24 90 -106 150 -292
211 -129 43 -162 66 -166 114 -7 87 99 116 245 66 31 -10 71 -28 89 -38 l31
-19 37 66 c20 36 35 71 32 78 -6 17 -103 61 -172 79 -85 22 -216 19 -283 -7z"/>
<path d="M17480 1980 l0 -440 100 0 100 0 0 440 0 440 -100 0 -100 0 0 -440z"/>
</g>
</svg>
