<?xml version="1.0" encoding="utf-8"?>
<!-- Generator: Adobe Illustrator 25.2.1, SVG Export Plug-In . SVG Version: 6.00 Build 0)  -->
<svg version="1.1"
	 id="Layer_1" inkscape:version="0.92.3 (2405546, 2018-03-11)" sodipodi:docname="Bonitas_2020_black.svg" xmlns:cc="http://creativecommons.org/ns#" xmlns:dc="http://purl.org/dc/elements/1.1/" xmlns:inkscape="http://www.inkscape.org/namespaces/inkscape" xmlns:rdf="http://www.w3.org/1999/02/22-rdf-syntax-ns#" xmlns:sodipodi="http://sodipodi.sourceforge.net/DTD/sodipodi-0.dtd" xmlns:svg="http://www.w3.org/2000/svg"
	 xmlns="http://www.w3.org/2000/svg" xmlns:xlink="http://www.w3.org/1999/xlink" x="0px" y="0px" viewBox="0 0 383 178.6"
	 style="enable-background:new 0 0 383 178.6;" xml:space="preserve">
<style type="text/css">
	.st0{fill:#003366;}
	.st1{fill:#FF3A30;}
</style>
<g>
	
		<sodipodi:namedview  bordercolor="#666666" borderopacity="1" gridtolerance="10" guidetolerance="10" id="namedview36" inkscape:current-layer="Layer_1" inkscape:cx="191.5" inkscape:cy="89.309998" inkscape:pageopacity="0" inkscape:pageshadow="2" inkscape:window-height="777" inkscape:window-maximized="0" inkscape:window-width="1881" inkscape:window-x="-3" inkscape:window-y="141" inkscape:zoom="3.8093995" objecttolerance="10" pagecolor="#ffffff" showgrid="false">
		</sodipodi:namedview>
	<path id="Fill-3" class="st0" d="M165.2,108.1h-7.5V90.3c0-1.7-0.2-3.1-0.8-4.2c-0.6-1.1-1.8-1.7-3.6-1.7c-1.4,0-2.7,0.3-3.9,0.9
		c-1.2,0.6-2.3,1.3-3.3,2.1c0.1,0.3,0.1,0.6,0.1,1.1v19.7h-7.6V90.4c0-1.7-0.2-3.1-0.8-4.2c-0.6-1.1-1.7-1.7-3.5-1.8
		c-1.4,0-2.7,0.3-3.9,0.9c-1.2,0.6-2.3,1.3-3.3,2.1v20.7h-7.6V78.7h6.4l0.8,3.2c3.3-2.5,6.7-3.8,10.2-3.9c1.9,0,3.5,0.4,4.8,1.2
		c1.3,0.8,2.3,1.8,3,3.2c1.8-1.5,3.6-2.6,5.4-3.3c1.9-0.7,3.6-1.1,5.3-1.1c1.7,0,3.3,0.3,4.8,0.9c1.5,0.6,2.7,1.7,3.6,3.2
		c0.9,1.5,1.4,3.5,1.4,6L165.2,108.1"/>
	<path id="Fill-5" class="st0" d="M196.4,90.1c-0.1-1.6-0.5-3.1-1.5-4.4c-0.9-1.3-2.4-2-4.3-2c-1.9,0.1-3.3,0.7-4.3,2
		c-1,1.3-1.5,2.8-1.6,4.4H196.4z M204.2,95.4h-19.3c0.1,2.2,1,4,2.5,5.3c1.6,1.3,3.5,2,5.9,2.1c1.4,0,2.7-0.2,4-0.5
		c1.3-0.3,2.5-0.9,3.8-1.5l1.8,4.8c-1.7,1.1-3.5,2-5.4,2.5c-1.9,0.5-3.7,0.8-5.5,0.7c-3.5,0-6.3-0.8-8.5-2.2
		c-2.2-1.4-3.8-3.3-4.8-5.6c-1-2.3-1.5-4.8-1.5-7.5c0-2.8,0.6-5.4,1.6-7.7c1.1-2.3,2.6-4.1,4.6-5.5c2-1.4,4.5-2.1,7.3-2.1
		c4.1,0.1,7.3,1.4,9.7,4.2c2.4,2.7,3.6,6.4,3.7,11L204.2,95.4z"/>
	<path id="Fill-1" class="st0" d="M107.5,93.9c0,2.2-0.4,4.3-1.1,6.2c-0.7,1.9-1.8,3.6-3.2,4.9c-2.7,2.7-6.3,4.1-10.8,4.2
		c-4.2,0-7.7-1.3-10.3-3.7c-1.5-1.4-2.6-3-3.4-5c-0.8-2-1.2-4.1-1.2-6.5c0-2.3,0.4-4.4,1.1-6.4c0.8-1.9,1.8-3.6,3.2-5
		c2.7-2.7,6.2-4.1,10.6-4.2c4.6,0.1,8.3,1.5,11,4.2C106.2,85.6,107.5,89.3,107.5,93.9z M99.8,93.9c0-2.9-0.6-5.1-1.9-6.8
		c-1.3-1.7-3.1-2.6-5.4-2.6c-2.4,0.1-4.2,0.9-5.4,2.7c-1.2,1.7-1.8,4-1.8,6.8c0,2.9,0.7,5.2,1.9,6.9c1.3,1.7,3.1,2.6,5.4,2.6
		c2.4-0.1,4.2-1,5.3-2.7C99.2,99,99.8,96.7,99.8,93.9z"/>
	<path id="Fill-7" class="st0" d="M243.3,108.1h-7.6V90.8c0.1-1.6-0.2-3-0.8-4.3c-0.6-1.3-1.8-2-3.7-2.1c-1.3,0-2.6,0.3-3.9,0.9
		c-1.3,0.6-2.5,1.3-3.7,2.2v20.5h-7.6V78.7h6.5l0.8,3.2c1.6-1.2,3.2-2.1,4.9-2.8c1.7-0.7,3.5-1,5.6-1c1.5,0,3,0.3,4.5,1
		c1.4,0.7,2.6,1.8,3.5,3.3c0.9,1.5,1.4,3.6,1.4,6.2V108.1"/>
	<path id="Fill-9" class="st0" d="M274.7,105.6c-1.6,1.1-3.3,1.9-5.1,2.4c-1.8,0.5-3.5,0.8-5,0.8c-2.6,0-4.5-0.7-5.7-1.9
		c-1.2-1.3-1.7-2.9-1.7-4.9V72l7.6-2.2v9h9.3l-2.2,5.6h-7.1v14.8c0,2.3,0.9,3.4,2.8,3.3c1,0,1.9-0.2,2.8-0.5
		c0.9-0.3,1.6-0.7,2.2-1.1L274.7,105.6"/>
	<path id="Fill-11" class="st0" d="M312.1,108.1h-6.3l-1.3-2.9c-1,1-2.3,1.8-3.9,2.5c-1.5,0.7-3.3,1-5.3,1.1c-1.4,0-2.8-0.2-4.4-0.9
		c-1.5-0.6-2.9-1.7-4-3.4c-1.1-1.7-1.7-4-1.8-7.2V78.8h7.6v18.1c0,1.9,0.4,3.3,1.3,4.3c0.9,1.1,2.2,1.6,4.1,1.6
		c1.2,0,2.3-0.3,3.3-0.8c1-0.5,1.8-1,2.4-1.6V78.8h7.6V100c0,2.2,0,4,0.1,5.2C311.7,106.4,311.8,107.4,312.1,108.1"/>
	<path id="Fill-13" class="st0" d="M371,108.1h-7.5V90.3c0-1.7-0.2-3.1-0.8-4.2c-0.6-1.1-1.8-1.7-3.6-1.7c-1.4,0-2.7,0.3-3.9,0.9
		c-1.2,0.6-2.3,1.3-3.3,2.1c0.1,0.3,0.1,0.6,0.1,1.1v19.7h-7.6V90.4c0-1.7-0.2-3.1-0.8-4.2c-0.6-1.1-1.7-1.7-3.5-1.8
		c-1.4,0-2.7,0.3-3.9,0.9c-1.2,0.6-2.3,1.3-3.3,2.1v20.7h-7.6V78.7h6.4l0.8,3.2c3.3-2.5,6.7-3.8,10.2-3.9c1.9,0,3.5,0.4,4.8,1.2
		c1.3,0.8,2.3,1.8,3,3.2c1.8-1.5,3.6-2.6,5.4-3.3c1.9-0.7,3.6-1.1,5.3-1.1c1.7,0,3.3,0.3,4.8,0.9c1.5,0.6,2.7,1.7,3.6,3.2
		c0.9,1.5,1.4,3.5,1.4,6L371,108.1"/>
	<g transform="translate(0,4) scale(0.89)">
		<path id="app-bar-logo__path" class="st1" d="M73.9,87.9c-1-1.7-2.4-2.9-4-3.6c-1.7-0.7-3.4-1.1-5.4-1.1c-1.8,0-3.8,0.5-5.8,1.3
			c-2,0.8-3.9,2-5.9,3.3c-1-1.7-2.3-2.9-4-3.6c-1.7-0.7-3.4-1.1-5.4-1.1c-1.8,0-3.8,0.5-5.8,1.3c-2,0.8-3.9,2-5.9,3.3
			c-1-1.7-2.3-2.9-4-3.6c-1.6-0.7-3.4-1.1-5.3-1.1c-1.8,0-3.8,0.5-5.8,1.3c-1.5,0.6-2.9,1.4-4.3,2.3v6.9c1.1-0.9,2.3-1.6,3.6-2.3
			c1.4-0.7,2.8-1,4.3-1c2,0,3.3,0.7,3.9,1.9c0.6,1.3,0.9,2.8,0.9,4.7v20.1h8.3V94.8c0-0.3,0-0.6,0-1c1.1-0.9,2.3-1.6,3.6-2.3
			c1.4-0.7,2.8-1,4.3-1c2,0,3.3,0.7,4,1.9c0.6,1.3,0.9,2.8,0.8,4.7v20.1h8.3V94.8c0-0.3,0-0.6,0-1c1.1-0.9,2.3-1.6,3.6-2.3
			c1.3-0.7,2.8-1,4.3-1c2,0,3.3,0.7,4,1.9c0.6,1.3,0.9,2.8,0.8,4.7v20.1h8.3V94.8C75.4,91.9,74.9,89.6,73.9,87.9"/>
	</g>
</g>
</svg>
