<?xml version="1.0" encoding="UTF-8"?>
<svg version="1.1" xmlns="http://www.w3.org/2000/svg" width="300" height="171">
<path d="M0 0 C0.99 0 1.98 0 3 0 C5.64 7.26 8.28 14.52 11 22 C13.21501545 19.78498455 13.72413878 18.36270505 14.7265625 15.4296875 C15.0359375 14.53378906 15.3453125 13.63789062 15.6640625 12.71484375 C15.98117188 11.77769531 16.29828125 10.84054688 16.625 9.875 C16.94984375 8.93011719 17.2746875 7.98523437 17.609375 7.01171875 C18.41146886 4.67621015 19.20810138 2.33898114 20 0 C21.32 0.33 22.64 0.66 24 1 C24.85961509 5.05573717 25.71395467 9.11254649 26.56347656 13.17041016 C26.85305254 14.54994491 27.1440541 15.92918123 27.43652344 17.30810547 C27.85729461 19.2931722 28.2728833 21.27926488 28.6875 23.265625 C28.93886719 24.45961914 29.19023437 25.65361328 29.44921875 26.88378906 C30 30 30 30 30 34 C28.68 34 27.36 34 26 34 C25.53676507 32.23044256 25.07975792 30.45925488 24.625 28.6875 C24.36976563 27.70136719 24.11453125 26.71523437 23.8515625 25.69921875 C22.73189532 20.83534342 21.89283258 15.91057917 21 11 C18.36 18.26 15.72 25.52 13 33 C12.01 33 11.02 33 10 33 C9.04027826 30.45884998 8.08218506 27.91710543 7.125 25.375 C6.72087891 24.30572266 6.72087891 24.30572266 6.30859375 23.21484375 C4.7865816 19.16851878 3.33627828 15.11262344 2 11 C1.88406494 11.62567871 1.76812988 12.25135742 1.64868164 12.89599609 C1.12306613 15.72291967 0.59284139 18.54895938 0.0625 21.375 C-0.11990234 22.35984375 -0.30230469 23.3446875 -0.49023438 24.359375 C-0.66748047 25.30039063 -0.84472656 26.24140625 -1.02734375 27.2109375 C-1.27085571 28.51490479 -1.27085571 28.51490479 -1.51928711 29.84521484 C-2 32 -2 32 -3 34 C-4.32 34 -5.64 34 -7 34 C-6.32596587 26.70817619 -5.01702586 19.66036206 -3.5 12.5 C-3.27441406 11.40429688 -3.04882812 10.30859375 -2.81640625 9.1796875 C-1.12818878 1.12818878 -1.12818878 1.12818878 0 0 Z " fill="#3B3B3B" transform="translate(180,55)"/>
<path d="M0 0 C4.14030324 3.21084741 6.41047658 6.41892975 8.0625 11.375 C8.59393715 17.64595838 7.91386045 22.25803668 4.0625 27.375 C0.02915051 31.29446668 -3.91447789 32.69965497 -9.5 32.9375 C-15.55731523 32.61075685 -19.39224565 31.18578979 -23.47265625 26.6796875 C-26.68876851 22.25417369 -27.72824395 18.28671804 -27.41796875 12.8359375 C-26.34369872 7.3335788 -23.42390592 3.05298095 -18.8125 -0.125 C-13.0325882 -2.95185643 -5.72589763 -2.93067448 0 0 Z M-19.9375 6.375 C-23.06951418 10.71940676 -23.3092532 14.13373476 -22.515625 19.2578125 C-21.46937736 23.08934103 -19.4553108 25.4744959 -16.07421875 27.48046875 C-12.39571915 29.02046218 -8.84905487 28.91827151 -4.9375 28.375 C-1.22839903 26.58913657 0.60271301 25.01276905 3 21.6875 C4.40841214 17.29656804 4.27346443 13.8097481 3.0625 9.375 C0.85010875 5.78940039 -1.09457123 3.98383124 -4.9375 2.375 C-10.97465949 1.43100779 -15.29354133 2.1733231 -19.9375 6.375 Z " fill="#393939" transform="translate(111.9375,56.625)"/>
<path d="M0 0 C18.14594972 0 18.14594972 0 22.515625 3.4609375 C26.54401487 7.63774173 28.21552664 11.14162677 28.5 17 C28.2678151 22.09258887 27.08460959 24.94130317 24 29 C15.61490602 35.50272595 12.19273911 34 0 34 C0 22.78 0 11.56 0 0 Z M4 4 C4 12.58 4 21.16 4 30 C13.03809499 30.45338299 13.03809499 30.45338299 20 27 C22.93666818 23.75953856 23.89954239 21.06485065 24.3125 16.6875 C23.93568959 12.24113718 22.90226622 10.36051878 20 7 C14.39483015 2.99630725 11.69124138 4 4 4 Z " fill="#393939" transform="translate(267,55)"/>
<path d="M0 0 C16 0 16 0 22 4 C23.68415373 6.29657327 23.9896268 7.94294739 24.5 10.75 C23.76895657 15.50178229 21.06342012 18.40777522 18 22 C18.3609375 22.61488281 18.721875 23.22976562 19.09375 23.86328125 C19.5578125 24.67152344 20.021875 25.47976562 20.5 26.3125 C20.9640625 27.11300781 21.428125 27.91351563 21.90625 28.73828125 C23 31 23 31 23 34 C20.67578125 33.77734375 20.67578125 33.77734375 18 33 C16.41796875 31.00390625 16.41796875 31.00390625 15.1875 28.5625 C14.55908203 27.35787109 14.55908203 27.35787109 13.91796875 26.12890625 C13 24 13 24 13 22 C10.03 22 7.06 22 4 22 C4 25.63 4 29.26 4 33 C2.02 33.495 2.02 33.495 0 34 C0 22.78 0 11.56 0 0 Z M4 4 C4 8.62 4 13.24 4 18 C6.35125 18.061875 6.35125 18.061875 8.75 18.125 C9.63171875 18.14820313 10.5134375 18.17140625 11.421875 18.1953125 C14.14906426 17.98870725 15.71315408 17.47305841 18 16 C19.55938978 12.88122044 19.3607834 10.42744229 19 7 C16.62620356 4.54707702 14.81346124 4.05464472 11.44140625 3.828125 C8.96031589 3.81404789 6.47914777 3.90083409 4 4 Z " fill="#373737" transform="translate(45,55)"/>
<path d="M0 0 C15 0 15 0 19.375 2.5625 C22.32978318 5.79905374 23.15806755 8.57410855 23 13 C21.47102022 17.18457623 19.84541472 19.71678501 16 22 C13.11788698 22.96070434 11.30149956 23.10581883 8.3125 23.0625 C6.1778125 23.0315625 6.1778125 23.0315625 4 23 C4 26.63 4 30.26 4 34 C2.68 34 1.36 34 0 34 C0 22.78 0 11.56 0 0 Z M4 4 C4 8.62 4 13.24 4 18 C5.753125 18.061875 7.50625 18.12375 9.3125 18.1875 C10.29863281 18.22230469 11.28476562 18.25710937 12.30078125 18.29296875 C15.00204958 18.22194228 15.00204958 18.22194228 16.82421875 16.703125 C18.8451514 13.77579398 18.48050025 11.42356428 18 8 C16.16821233 5.34978302 16.16821233 5.34978302 13 4 C9.91524935 3.6853348 7.11635109 3.81394919 4 4 Z " fill="#3C3C3C" transform="translate(5,55)"/>
<path d="M0 0 C0.87454834 0.00523682 1.74909668 0.01047363 2.65014648 0.01586914 C3.59438477 0.0190918 4.53862305 0.02231445 5.51147461 0.02563477 C6.50469727 0.03401367 7.49791992 0.04239258 8.52124023 0.05102539 C9.51833008 0.05553711 10.51541992 0.06004883 11.54272461 0.06469727 C14.01478872 0.07652532 16.48673541 0.0930069 18.95874023 0.11352539 C18.95874023 1.43352539 18.95874023 2.75352539 18.95874023 4.11352539 C13.34874023 4.11352539 7.73874023 4.11352539 1.95874023 4.11352539 C1.95874023 8.07352539 1.95874023 12.03352539 1.95874023 16.11352539 C6.90874023 16.11352539 11.85874023 16.11352539 16.95874023 16.11352539 C16.62874023 17.43352539 16.29874023 18.75352539 15.95874023 20.11352539 C11.33874023 20.44352539 6.71874023 20.77352539 1.95874023 21.11352539 C1.95874023 25.07352539 1.95874023 29.03352539 1.95874023 33.11352539 C-0.02125977 33.60852539 -0.02125977 33.60852539 -2.04125977 34.11352539 C-3.71799626 32.4367889 -3.16913793 30.38497464 -3.1802063 28.14697266 C-3.17818207 27.45531006 -3.17615784 26.76364746 -3.17407227 26.05102539 C-3.17502899 25.34453857 -3.17598572 24.63805176 -3.17697144 23.91015625 C-3.17765309 22.41381746 -3.17579981 20.91747572 -3.17163086 19.42114258 C-3.16628234 17.12322382 -3.17157627 14.82550053 -3.17797852 12.52758789 C-3.17731773 11.07706662 -3.17603656 9.62654548 -3.17407227 8.17602539 C-3.1760965 7.48436279 -3.17812073 6.7927002 -3.1802063 6.08007812 C-3.15100308 0.17524416 -3.15100308 0.17524416 0 0 Z " fill="#4C4C4C" transform="translate(141.041259765625,54.886474609375)"/>
<path d="M0 0 C6.6 0 13.2 0 20 0 C20.33 1.65 20.66 3.3 21 5 C21 4.67 21 4.34 21 4 C21.32380126 2.66431979 21.65657551 1.33076989 22 0 C23.65 0 25.3 0 27 0 C27 1.32 27 2.64 27 4 C27.33 2.68 27.66 1.36 28 0 C28.99 0 29.98 0 31 0 C31 2.97 31 5.94 31 9 C23.08 9 15.16 9 7 9 C6.67 8.01 6.34 7.02 6 6 C5.01 6 4.02 6 3 6 C3 6.99 3 7.98 3 9 C2.01 9 1.02 9 0 9 C0 6.03 0 3.06 0 0 Z M13 2 C13 3.32 13 4.64 13 6 C12.01 6.33 11.02 6.66 10 7 C11.65 7 13.3 7 15 7 C15 6.01 15 5.02 15 4 C14.34 3.34 13.68 2.68 13 2 Z " fill="#6F6F6F" transform="translate(221,108)"/>
<path d="M0 0 C0.94875 0.04125 1.8975 0.0825 2.875 0.125 C2.875 1.115 2.875 2.105 2.875 3.125 C1.225 3.125 -0.425 3.125 -2.125 3.125 C-2.125 4.115 -2.125 5.105 -2.125 6.125 C-0.475 6.125 1.175 6.125 2.875 6.125 C3.865 4.145 4.855 2.165 5.875 0.125 C8.875 1.125 8.875 1.125 10.0625 3.1875 C10.330625 3.826875 10.59875 4.46625 10.875 5.125 C11.205 3.475 11.535 1.825 11.875 0.125 C12.865 0.125 13.855 0.125 14.875 0.125 C14.875 2.105 14.875 4.085 14.875 6.125 C15.865 6.125 16.855 6.125 17.875 6.125 C17.875 7.115 17.875 8.105 17.875 9.125 C14.41673658 9.18289006 10.95859707 9.21855821 7.5 9.25 C6.51515625 9.26675781 5.5303125 9.28351563 4.515625 9.30078125 C3.57460937 9.30722656 2.63359375 9.31367187 1.6640625 9.3203125 C0.36009521 9.33602295 0.36009521 9.33602295 -0.97021484 9.35205078 C-3.125 9.125 -3.125 9.125 -5.125 7.125 C-5.375 4.625 -5.375 4.625 -5.125 2.125 C-3.125 0.125 -3.125 0.125 0 0 Z " fill="#4C4C4C" transform="translate(121.125,107.875)"/>
<path d="M0 0 C4 1 4 1 5 2 C5.33 1.34 5.66 0.68 6 0 C6.99 0 7.98 0 9 0 C9.33 1.65 9.66 3.3 10 5 C10.45375 4.175 10.9075 3.35 11.375 2.5 C11.91125 1.675 12.4475 0.85 13 0 C13.66 0 14.32 0 15 0 C15.99 2.97 16.98 5.94 18 9 C16.22950311 9.05410687 14.45853151 9.09284119 12.6875 9.125 C11.20830078 9.15980469 11.20830078 9.15980469 9.69921875 9.1953125 C7 9 7 9 4 7 C4 7.66 4 8.32 4 9 C2.68 9 1.36 9 0 9 C0 6.03 0 3.06 0 0 Z " fill="#5F5F5F" transform="translate(263,108)"/>
<path d="M0 0 C3 0 6 0 9 0 C10.2375 -0.061875 10.2375 -0.061875 11.5 -0.125 C14 0 14 0 16 2 C16.1875 5.0625 16.1875 5.0625 16 8 C15 9 15 9 12.0625 9.1875 C9 9 9 9 7 7 C7 5.68 7 4.36 7 3 C6.67 3.99 6.34 4.98 6 6 C5.01 6 4.02 6 3 6 C3 6.99 3 7.98 3 9 C2.01 9 1.02 9 0 9 C0 6.03 0 3.06 0 0 Z M10 3 C10 3.99 10 4.98 10 6 C11.32 5.67 12.64 5.34 14 5 C13.67 4.34 13.34 3.68 13 3 C12.01 3 11.02 3 10 3 Z " fill="#6D6D6D" transform="translate(167,108)"/>
<path d="M0 0 C1.65 0 3.3 0 5 0 C5.33 1.65 5.66 3.3 6 5 C6 4.67 6 4.34 6 4 C6.32380126 2.66431979 6.65657551 1.33076989 7 0 C8.65 0 10.3 0 12 0 C12 1.32 12 2.64 12 4 C12.33 2.68 12.66 1.36 13 0 C13.99 0 14.98 0 16 0 C16 2.97 16 5.94 16 9 C14.39592672 9.02708567 12.7917215 9.04643483 11.1875 9.0625 C9.84751953 9.07990234 9.84751953 9.07990234 8.48046875 9.09765625 C6 9 6 9 3 8 C3 7.34 3 6.68 3 6 C2.01 5.67 1.02 5.34 0 5 C0 3.35 0 1.7 0 0 Z " fill="#5C5C5C" transform="translate(236,108)"/>
<path d="M0 0 C7.26 0 14.52 0 22 0 C21.67 1.32 21.34 2.64 21 4 C14.07 4 7.14 4 0 4 C0 2.68 0 1.36 0 0 Z " fill="#3C3C3C" transform="translate(228,85)"/>
<path d="M0 0 C6.93 0 13.86 0 21 0 C21 1.32 21 2.64 21 4 C14.07 4 7.14 4 0 4 C0 2.68 0 1.36 0 0 Z " fill="#393939" transform="translate(228,55)"/>
<path d="M0 0 C0.99 0 1.98 0 3 0 C3 1.98 3 3.96 3 6 C4.32 5.67 5.64 5.34 7 5 C6.7215625 4.0409375 6.7215625 4.0409375 6.4375 3.0625 C6.293125 2.381875 6.14875 1.70125 6 1 C7 0 7 0 10.0625 -0.0625 C11.5165625 -0.0315625 11.5165625 -0.0315625 13 0 C12.814375 0.5775 12.62875 1.155 12.4375 1.75 C11.95817621 4.21509379 12.34273163 5.61740218 13 8 C12 9 12 9 9.49609375 9.09765625 C7.98208984 9.08025391 7.98208984 9.08025391 6.4375 9.0625 C5.42558594 9.05347656 4.41367187 9.04445313 3.37109375 9.03515625 C2.58863281 9.02355469 1.80617188 9.01195313 1 9 C-0.4783226 6.04335481 -0.06032783 3.25770263 0 0 Z " fill="#5B5B5B" transform="translate(281,108)"/>
<path d="M0 0 C0.99 0.33 1.98 0.66 3 1 C4.04894965 5.62649316 3.82806355 8.81897123 2.5625 13.375 C2.27503906 14.43460938 1.98757812 15.49421875 1.69140625 16.5859375 C1.46324219 17.38257812 1.23507813 18.17921875 1 19 C-0.32 19 -1.64 19 -3 19 C-2.37679879 12.56025419 -1.35991738 6.32427599 0 0 Z " fill="#3F3F3F" transform="translate(176,70)"/>
<path d="M0 0 C0.99 0 1.98 0 3 0 C3.66 0.99 4.32 1.98 5 3 C5.66 2.01 6.32 1.02 7 0 C7.66 0 8.32 0 9 0 C9.33 2.97 9.66 5.94 10 9 C6.37 9 2.74 9 -1 9 C-0.67 6.03 -0.34 3.06 0 0 Z " fill="#373737" transform="translate(85,108)"/>
<path d="M0 0 C5.28 0 10.56 0 16 0 C16 1.32 16 2.64 16 4 C10.72 4 5.44 4 0 4 C0 2.68 0 1.36 0 0 Z " fill="#414141" transform="translate(228,70)"/>
<path d="M0 0 C0.3125 2.1875 0.3125 2.1875 0 5 C-2.375 7.625 -2.375 7.625 -5 10 C-5.99 11.485 -5.99 11.485 -7 13 C-7.66 13 -8.32 13 -9 13 C-9.33 15.64 -9.66 18.28 -10 21 C-10.33 21 -10.66 21 -11 21 C-11.60188949 14.47284285 -11.23113778 10.04171587 -7.37109375 4.62890625 C-3.47482014 0 -3.47482014 0 0 0 Z " fill="#505050" transform="translate(96,56)"/>
<path d="M0 0 C5.41139241 -0.36075949 5.41139241 -0.36075949 7.9375 1.1875 C9 3 9 3 8.75 5.625 C8 8 8 8 7 9 C4.66702567 9.04092937 2.33294775 9.04241723 0 9 C0 6.03 0 3.06 0 0 Z M3 3 C3 3.99 3 4.98 3 6 C3.99 5.67 4.98 5.34 6 5 C5.67 4.34 5.34 3.68 5 3 C4.34 3 3.68 3 3 3 Z " fill="#464646" transform="translate(155,108)"/>
<path d="M0 0 C1.010625 0.0825 2.02125 0.165 3.0625 0.25 C5.0625 3.25 5.0625 3.25 4.75 5.875 C4.0625 8.25 4.0625 8.25 3.0625 9.25 C0.125 9.4375 0.125 9.4375 -2.9375 9.25 C-3.5975 8.59 -4.2575 7.93 -4.9375 7.25 C-4.23447766 0.36038108 -4.23447766 0.36038108 0 0 Z M-1.9375 3.25 C-1.9375 4.24 -1.9375 5.23 -1.9375 6.25 C-0.6175 6.25 0.7025 6.25 2.0625 6.25 C1.7325 5.26 1.4025 4.27 1.0625 3.25 C0.0725 3.25 -0.9175 3.25 -1.9375 3.25 Z " fill="#555555" transform="translate(257.9375,107.75)"/>
<path d="M0 0 C0.99 0 1.98 0 3 0 C3 1.98 3 3.96 3 6 C3.66 6 4.32 6 5 6 C5.33 4.02 5.66 2.04 6 0 C6.99 0 7.98 0 9 0 C9 2.97 9 5.94 9 9 C6.03 9 3.06 9 0 9 C0 6.03 0 3.06 0 0 Z " fill="#5C5C5C" transform="translate(39,108)"/>
<path d="M0 0 C2.875 -0.125 2.875 -0.125 6 0 C8 2 8 2 8.125 5.125 C8.08375 6.07375 8.0425 7.0225 8 8 C5.29120665 9.35439668 2.99066732 9.06501451 0 9 C0 6.03 0 3.06 0 0 Z M3 3 C3 3.99 3 4.98 3 6 C3.66 6 4.32 6 5 6 C5 5.01 5 4.02 5 3 C4.34 3 3.68 3 3 3 Z " fill="#505050" transform="translate(103,108)"/>
<path d="M0 0 C2.5 0.25 2.5 0.25 4.5 2.25 C4.625 5.375 4.625 5.375 4.5 8.25 C1.125 8.875 1.125 8.875 -2.5 9.25 C-4.5 7.25 -4.5 7.25 -4.75 4.75 C-4.40058445 1.25584452 -3.49415548 0.34941555 0 0 Z M-1.5 3.25 C-1.5 4.24 -1.5 5.23 -1.5 6.25 C-0.18 5.92 1.14 5.59 2.5 5.25 C2.17 4.59 1.84 3.93 1.5 3.25 C0.51 3.25 -0.48 3.25 -1.5 3.25 Z " fill="#353535" transform="translate(215.5,107.75)"/>
<path d="M0 0 C1.98 0 3.96 0 6 0 C7.78257471 3.23091667 8 5.32518002 8 9 C5.36 9 2.72 9 0 9 C0 6.03 0 3.06 0 0 Z " fill="#575757" transform="translate(184,108)"/>
<path d="M0 0 C1.98 0.99 1.98 0.99 4 2 C4.33 1.34 4.66 0.68 5 0 C5.99 0 6.98 0 8 0 C8 2.97 8 5.94 8 9 C6.68 8.34 5.36 7.68 4 7 C3.67 7.66 3.34 8.32 3 9 C2.01 9 1.02 9 0 9 C0 6.03 0 3.06 0 0 Z " fill="#4D4D4D" transform="translate(9,108)"/>
<path d="M0 0 C1.98 0.99 1.98 0.99 4 2 C4.33 1.34 4.66 0.68 5 0 C5.99 0 6.98 0 8 0 C8 2.97 8 5.94 8 9 C6.68 8.34 5.36 7.68 4 7 C3.67 7.66 3.34 8.32 3 9 C2.01 9 1.02 9 0 9 C0 6.03 0 3.06 0 0 Z " fill="#4D4D4D" transform="translate(66,108)"/>
<path d="M0 0 C0.94875 0.04125 1.8975 0.0825 2.875 0.125 C2.875 1.115 2.875 2.105 2.875 3.125 C1.225 3.125 -0.425 3.125 -2.125 3.125 C-2.125 4.115 -2.125 5.105 -2.125 6.125 C-1.795 5.465 -1.465 4.805 -1.125 4.125 C0.195 4.125 1.515 4.125 2.875 4.125 C2.875 5.775 2.875 7.425 2.875 9.125 C0 9.25 0 9.25 -3.125 9.125 C-5.125 7.125 -5.125 7.125 -5.375 4.625 C-4.98192433 0.69424327 -3.8631953 0.15452781 0 0 Z " fill="#545454" transform="translate(54.125,107.875)"/>
<path d="M0 0 C1.98 0 3.96 0 6 0 C6.70074844 3.153368 7 5.72724974 7 9 C4.69 9 2.38 9 0 9 C0 6.03 0 3.06 0 0 Z " fill="#4E4E4E" transform="translate(203,108)"/>
<path d="M0 0 C2.31 0 4.62 0 7 0 C6.814375 0.928125 6.62875 1.85625 6.4375 2.8125 C5.75876119 6.01343771 5.75876119 6.01343771 7 9 C4.69 9 2.38 9 0 9 C0 6.03 0 3.06 0 0 Z " fill="#626262" transform="translate(58,108)"/>
<path d="M0 0 C1.98 0 3.96 0 6 0 C6 2.97 6 5.94 6 9 C4.02 9 2.04 9 0 9 C0 6.03 0 3.06 0 0 Z " fill="#393939" transform="translate(25,108)"/>
<path d="M0 0 C1.98 0 3.96 0 6 0 C6 3 6 6 6 9 C4.02 9 2.04 9 0 9 C0 6.03 0 3.06 0 0 Z " fill="#4B4B4B" transform="translate(96,108)"/>
<path d="M0 0 C0.66 0 1.32 0 2 0 C2.99 2.97 3.98 5.94 5 9 C2.36 9 -0.28 9 -3 9 C-2.5020163 5.26512223 -2.12508244 3.18762365 0 0 Z " fill="#434343" transform="translate(276,108)"/>
<path d="M0 0 C0.66 0 1.32 0 2 0 C5 5.625 5 5.625 5 9 C2.36 9 -0.28 9 -3 9 C-2.44271087 5.65626525 -1.64826111 2.96687001 0 0 Z " fill="#626262" transform="translate(145,108)"/>
<path d="M0 0 C1.66611905 -0.042721 3.33382885 -0.04063832 5 0 C6 1 6 1 6.125 4 C6 7 6 7 5 8 C2.0625 8.1875 2.0625 8.1875 -1 8 C-1.66 7.34 -2.32 6.68 -3 6 C-3 4.68 -3 3.36 -3 2 C-2.34 2 -1.68 2 -1 2 C-1 2.99 -1 3.98 -1 5 C0.32 4.34 1.64 3.68 3 3 C3 2.34 3 1.68 3 1 C2.01 0.67 1.02 0.34 0 0 Z " fill="#4B4B4B" transform="translate(177,109)"/>
<path d="M0 0 C1.65 0 3.3 0 5 0 C5.33 1.65 5.66 3.3 6 5 C5.01 5.33 4.02 5.66 3 6 C3 6.99 3 7.98 3 9 C2.01 9 1.02 9 0 9 C0 6.03 0 3.06 0 0 Z " fill="#6B6B6B" transform="translate(196,108)"/>
<path d="M0 0 C1.32 0.33 2.64 0.66 4 1 C3.01 4.63 2.02 8.26 1 12 C0.34 11.34 -0.32 10.68 -1 10 C-1.99 10.495 -1.99 10.495 -3 11 C-2.01 7.37 -1.02 3.74 0 0 Z " fill="#464646" transform="translate(196,66)"/>
<path d="M0 0 C0.99 0 1.98 0 3 0 C3 1.98 3 3.96 3 6 C3.99 6 4.98 6 6 6 C6 6.99 6 7.98 6 9 C3.69 9 1.38 9 -1 9 C-0.67 6.03 -0.34 3.06 0 0 Z " fill="#636363" transform="translate(133,108)"/>
<path d="M0 0 C0.99 0 1.98 0 3 0 C3 1.98 3 3.96 3 6 C3.99 6 4.98 6 6 6 C6 6.99 6 7.98 6 9 C4.02 9 2.04 9 0 9 C0 6.03 0 3.06 0 0 Z " fill="#5E5E5E" transform="translate(32,108)"/>
<path d="M0 0 C1.98 0 3.96 0 6 0 C5.67 2.97 5.34 5.94 5 9 C4.01 9 3.02 9 2 9 C2 7.02 2 5.04 2 3 C1.34 3 0.68 3 0 3 C0 2.01 0 1.02 0 0 Z " fill="#525252" transform="translate(18,108)"/>
<path d="M0 0 C1.98 0 3.96 0 6 0 C6 0.99 6 1.98 6 3 C5.34 3 4.68 3 4 3 C4 4.98 4 6.96 4 9 C3.01 9 2.02 9 1 9 C1.020625 8.2575 1.04125 7.515 1.0625 6.75 C1.00671312 4.29537721 0.6930096 2.33890739 0 0 Z " fill="#4D4D4D" transform="translate(75,108)"/>
<path d="M0 0 C3 1 3 1 4.1875 2.8125 C5 5 5 5 5 9 C4.34 9 3.68 9 3 9 C3 8.34 3 7.68 3 7 C1.68 7 0.36 7 -1 7 C-0.67 4.69 -0.34 2.38 0 0 Z " fill="#424242" transform="translate(127,108)"/>
<path d="M0 0 C1.65 0 3.3 0 5 0 C5 2.64 5 5.28 5 8 C4.34 8 3.68 8 3 8 C3 7.34 3 6.68 3 6 C2.01 5.67 1.02 5.34 0 5 C0 3.35 0 1.7 0 0 Z " fill="#3C3C3C" transform="translate(236,108)"/>
<path d="M0 0 C1.65 0 3.3 0 5 0 C5 1.65 5 3.3 5 5 C4.01 5 3.02 5 2 5 C2 5.99 2 6.98 2 8 C1.34 8 0.68 8 0 8 C0 5.36 0 2.72 0 0 Z " fill="#464646" transform="translate(222,109)"/>
<path d="M0 0 C0.99 0.33 1.98 0.66 3 1 C3.84098656 5.01804691 4.05404945 8.01803543 3 12 C2.67 12 2.34 12 2 12 C1.67 10.35 1.34 8.7 1 7 C0.34 7.66 -0.32 8.32 -1 9 C-0.67 6.03 -0.34 3.06 0 0 Z " fill="#656565" transform="translate(176,70)"/>
<path d="M0 0 C0.99 0 1.98 0 3 0 C3 2.97 3 5.94 3 9 C2.01 9 1.02 9 0 9 C0 6.03 0 3.06 0 0 Z " fill="#5E5E5E" transform="translate(112,108)"/>
<path d="M0 0 C0.99 0 1.98 0 3 0 C3 2.97 3 5.94 3 9 C2.01 9 1.02 9 0 9 C0 6.03 0 3.06 0 0 Z " fill="#616161" transform="translate(151,108)"/>
<path d="M0 0 C0.99 0 1.98 0 3 0 C3 2.97 3 5.94 3 9 C2.01 9 1.02 9 0 9 C0 6.03 0 3.06 0 0 Z " fill="#595959" transform="translate(5,108)"/>
<path d="M0 0 C1.98 0 3.96 0 6 0 C6.625 1.875 6.625 1.875 7 4 C6.34 4.66 5.68 5.32 5 6 C2.375 5.625 2.375 5.625 0 5 C0 3.35 0 1.7 0 0 Z M1 1 C1 1.99 1 2.98 1 4 C1.99 3.67 2.98 3.34 4 3 C3.67 2.34 3.34 1.68 3 1 C2.34 1 1.68 1 1 1 Z " fill="#747474" transform="translate(157,110)"/>
<path d="M0 0 C1.98 0 3.96 0 6 0 C6 0.99 6 1.98 6 3 C3.69 3.33 1.38 3.66 -1 4 C-0.67 2.68 -0.34 1.36 0 0 Z " fill="#737373" transform="translate(288,108)"/>
<path d="M0 0 C2.66666667 0 5.33333333 0 8 0 C7.67 0.99 7.34 1.98 7 3 C6.01 3 5.02 3 4 3 C3.67 3.99 3.34 4.98 3 6 C3 5.01 3 4.02 3 3 C1.02 3.33 -0.96 3.66 -3 4 C-3 3.34 -3 2.68 -3 2 C-2.01 2 -1.02 2 0 2 C0 1.34 0 0.68 0 0 Z " fill="#979797" transform="translate(173,108)"/>
<path d="M0 0 C1.4540625 0.0309375 1.4540625 0.0309375 2.9375 0.0625 C2.9375 1.0525 2.9375 2.0425 2.9375 3.0625 C2.15375 3.18625 1.37 3.31 0.5625 3.4375 C-2.20307822 3.85367993 -2.20307822 3.85367993 -4.0625 6.0625 C-4.105221 4.39638095 -4.10313832 2.72867115 -4.0625 1.0625 C-3.0625 0.0625 -3.0625 0.0625 0 0 Z " fill="#4D4D4D" transform="translate(54.0625,107.9375)"/>
<path d="M0 0 C0.66 0 1.32 0 2 0 C3.4606285 2.64738916 4 3.89448334 4 7 C3.34 7 2.68 7 2 7 C2 6.34 2 5.68 2 5 C0.68 4.67 -0.64 4.34 -2 4 C-1.34 2.68 -0.68 1.36 0 0 Z " fill="#2B2B2B" transform="translate(146,110)"/>
<path d="M0 0 C0.66 0 1.32 0 2 0 C2.33 1.65 2.66 3.3 3 5 C1.68 5.33 0.36 5.66 -1 6 C-1.33 5.01 -1.66 4.02 -2 3 C-1.34 2.01 -0.68 1.02 0 0 Z " fill="#545454" transform="translate(276,108)"/>
<path d="M0 0 C0.66 0 1.32 0 2 0 C2.33 0.99 2.66 1.98 3 3 C5.01508358 3.73323796 5.01508358 3.73323796 7 4 C7 4.66 7 5.32 7 6 C4.625 6.125 4.625 6.125 2 6 C1.34 5.34 0.68 4.68 0 4 C0 2.68 0 1.36 0 0 Z " fill="#2A2A2A" transform="translate(174,111)"/>
<path d="M0 0 C0.78375 0.04125 1.5675 0.0825 2.375 0.125 C2.045 1.115 1.715 2.105 1.375 3.125 C0.385 3.125 -0.605 3.125 -1.625 3.125 C-1.955 4.115 -2.285 5.105 -2.625 6.125 C-3.615 6.62 -3.615 6.62 -4.625 7.125 C-4.75 4.75 -4.75 4.75 -4.625 2.125 C-2.625 0.125 -2.625 0.125 0 0 Z " fill="#707070" transform="translate(215.625,107.875)"/>
<path d="M0 0 C0.66 0 1.32 0 2 0 C2 0.99 2 1.98 2 3 C3.32 3.33 4.64 3.66 6 4 C6 4.66 6 5.32 6 6 C4.35 5.67 2.7 5.34 1 5 C0.67 3.35 0.34 1.7 0 0 Z " fill="#464646" transform="translate(253,111)"/>
<path d="M0 0 C0.66 0 1.32 0 2 0 C2.33 2.97 2.66 5.94 3 9 C2.01 9 1.02 9 0 9 C-0.33 7.68 -0.66 6.36 -1 5 C-0.34 5 0.32 5 1 5 C0.67 3.35 0.34 1.7 0 0 Z " fill="#6E6E6E" transform="translate(92,108)"/>
<path d="M0 0 C1.32 0.33 2.64 0.66 4 1 C3.34 1 2.68 1 2 1 C2.33 1.99 2.66 2.98 3 4 C2.5625 6.1875 2.5625 6.1875 2 8 C1.34 8 0.68 8 0 8 C0 5.36 0 2.72 0 0 Z " fill="#0A0A0A" transform="translate(196,109)"/>
<path d="M0 0 C0.33 0.66 0.66 1.32 1 2 C3.02463255 2.65213292 3.02463255 2.65213292 5 3 C2.69 3.33 0.38 3.66 -2 4 C-2 3.34 -2 2.68 -2 2 C-3.32 1.67 -4.64 1.34 -6 1 C-4.7934375 1.0309375 -4.7934375 1.0309375 -3.5625 1.0625 C-1.06645115 1.29633621 -1.06645115 1.29633621 0 0 Z " fill="#868686" transform="translate(125,113)"/>
<path d="M0 0 C1.65 0 3.3 0 5 0 C5.33 1.32 5.66 2.64 6 4 C4.68 4 3.36 4 2 4 C2 3.34 2 2.68 2 2 C1.34 1.34 0.68 0.68 0 0 Z " fill="#3F3F3F" transform="translate(288,112)"/>
<path d="M0 0 C0.33 0.66 0.66 1.32 1 2 C1.99 2 2.98 2 4 2 C4 2.66 4 3.32 4 4 C3.01 4 2.02 4 1 4 C1 4.99 1 5.98 1 7 C0.34 7 -0.32 7 -1 7 C-0.67 4.69 -0.34 2.38 0 0 Z " fill="#242424" transform="translate(169,110)"/>
<path d="M0 0 C1.32 0 2.64 0 4 0 C4 1.32 4 2.64 4 4 C2.68 4.33 1.36 4.66 0 5 C-0.33 4.01 -0.66 3.02 -1 2 C-0.67 1.34 -0.34 0.68 0 0 Z " fill="#898989" transform="translate(27,110)"/>
<path d="M0 0 C0.99 0 1.98 0 3 0 C2.835 0.928125 2.67 1.85625 2.5 2.8125 C1.92251612 5.95621353 1.92251612 5.95621353 2 9 C1.01 9 0.02 9 -1 9 C-0.67 6.03 -0.34 3.06 0 0 Z " fill="#797979" transform="translate(85,108)"/>
<path d="M0 0 C1.4540625 0.0309375 1.4540625 0.0309375 2.9375 0.0625 C1.9475 1.5475 1.9475 1.5475 0.9375 3.0625 C-0.0525 3.0625 -1.0425 3.0625 -2.0625 3.0625 C-2.3925 4.0525 -2.7225 5.0425 -3.0625 6.0625 C-3.44468767 4.40635343 -3.77645102 2.73792976 -4.0625 1.0625 C-3.0625 0.0625 -3.0625 0.0625 0 0 Z " fill="#686868" transform="translate(258.0625,107.9375)"/>
</svg>
